<svg version="1" xmlns="http://www.w3.org/2000/svg" width="1197.333" height="1197.333" viewBox="0 0 898.000000 898.000000"><path d="M654 144.6c-8.6 3.6-11.1 15.3-4.7 22.6 8.6 9.9 25 3.5 25-9.7 0-10.7-10.2-17.2-20.3-12.9zM784.4 162.6c-8.3 4.1-8.9 16.8-1 21.9 8.4 5.6 19.9-.6 19.8-10.5-.2-9.9-9.8-15.9-18.8-11.4zM266.2 175c-5 3-7.4 7.6-6.9 13.1 1.3 14.9 20.3 19 26.9 5.8 4.9-9.6-2-20.9-12.7-20.9-2.2 0-5.4.9-7.3 2zM444.1 182.6c-6.5 3-11.5 7.6-14.3 13.2-2.8 5.8-2.9 6.3-3 13.9-.1 4.4.5 7.5 2.1 11 10.6 22.8 41.3 23.5 52.7 1.1 3.7-7.1 3.8-16.9.5-24.6-6.2-14.1-24.2-21-38-14.6zM646 203.6c-4.8 2.2-8.8 6.2-10.9 10.9-2.7 6-3.1 7.4-2.3 7.9.4.2.7 1.7.6 3.3 0 1.5.3 3.1.9 3.4.6.4.5 1.4-.3 2.5-.9 1.6-1.1 1.6-.6.2.3-1 .1-2-.5-2.3-.5-.4-.7-1.1-.4-1.6.4-.5.1-.9-.4-.9-1.4 0-1.4 1.3.1 2.8.9.9.9 1.2-.2 1.2-1 0-1 .4.2 1.7.9 1 1.3 2.4 1.1 3-.3.7 0 1.3.6 1.3s1 .5.9 1.1c-.2.6.4 1.4 1.2 1.6 1 .3 1.1.2.4-.4-.6-.4-1-1.6-.8-2.6.1-.9-.1-1.5-.6-1.2-1.1.7-.6-2.3.6-3.2.5-.4.6-.4.2.1-.4.5-.3 1.5.3 2.3.6.7.8 1.3.4 1.3s0 1.1.8 2.4c1.6 2.4 1.4 3.7-.6 3.2-.7-.2-.9-.1-.5.1s.4 1.2.1 2.1c-.4 1.4-.3 1.5.6.2.8-1.2 1.3-1.2 2.3-.2.6.6.8 1.2.3 1.2-.6 0-.3.5.5 1.1 1.2.8 1 .9-.7.4-2.2-.6-3.1.4-1.6 1.9.7.6 1.3 2.8 1.5 5.3.1.7.6 1.1 1.2 1 .6-.1 1 .6.8 1.5-.2 1 .2 1.8.8 1.8.6 0 .9-.4.5-.9-.3-.5-.1-1.3.5-1.6.6-.4.9-.3.8.2-.1.4.2 1.7.8 2.8.6 1.1 1 2.7.9 3.5 0 .8.3 1.8.8 2.1.4.3.9 1.6 1 2.7.1 1.2.6 2.2 1.1 2.2.5 0 .2.6-.8 1.3-1.5 1.1-1.5 1.7-.5 4.2.7 1.7 1.1 3.4 1 3.8-.1.5.3.6.9.2.7-.4.7-1.2 0-2.4-.5-1-.6-2.1-.3-2.5.3-.3.1-.6-.5-.6-.7 0-1.2-.4-1.2-.8 0-.5.7-.9 1.5-.9s1.2.4.9.8c-.2.4 0 1 .6 1.4.6.4.8 1.1.4 1.6-.3.5.2 2.1 1.1 3.5 1.5 2.3 1.5 2.7.1 4.3-1.6 1.7-1.2 3.1.7 3.1.5 0 .7-.7.3-1.5-.3-.8-.1-1.5.4-1.5.6 0 1 .7 1 1.5 0 2.4.1 2.9 1.3 5 1.1 2 1.7 4 1.9 6.2.1.7.6 1.3 1.1 1.3.5 0 .7.6.4 1.4-.3.7 0 1.9.6 2.5 1.2 1.2 1.9 3.5 1.8 6.4 0 1 .5 1.5 1.1 1.1.7-.4.8-.2.4.5-.6.9-1.1.9-2.2 0-1.2-1-1.2-1.4-.2-2 1.1-.7 1.1-.9 0-.9-.7 0-1.1-.4-.7-.9.3-.5.1-1.2-.5-1.6-.6-.4-.7-1.1-.4-1.7.4-.7.2-.8-.4-.4-.7.4-1-.1-.7-1.3.3-1.4-.1-1.8-1.2-1.4-1.2.5-1.2.7-.1 1.4.7.5.9.9.4.9s-.2.7.5 1.7c.8.9 1.3 1.8 1.2 2-.2.1-.3.4-.2.5 0 .2.2 1.2.4 2.2.2 1 .7 2.2 1.2 2.5.4.3.9 1.7 1.1 3.1.1 1.3.7 2.7 1.3 3.1.6.3 1 .9 1 1.3-.1.3-.1 1.5-.1 2.7 0 2.3 2.1 2.2 2.8-.2.3-1.1.1-1.1-.8.1-1 1.3-1.1 1.3-.7-.2.3-.9.1-1.9-.6-2.2-.8-.3-.8-.5-.1-.5.6-.1 1.7.6 2.5 1.5 1 1.2 1 2 .1 3.4-.6 1-.9 2.8-.7 3.9.3 1.2.7 3.1 1 4.3.2 1.2 1 2.5 1.6 2.9.6.4.8 1.2.4 1.9-.5.8-.4 1.1.3.6.7-.4 1.1.2 1 1.6-.1 2.9 1.2 6.8 2.3 6.8.4 0 .6.9.4 2-.2 1.1.1 2.2.6 2.5.5.4.7 1.1.4 1.6-.4.5-.1.9.5.9.7 0 1 .6.7 1.3-.3.8.1 1.4.8 1.4 1.1 0 1.1-.6-.1-2.9-.8-1.5-1.2-2.8-.8-2.8.4 0 .1-.7-.6-1.5s-.9-1.5-.5-1.5.2-.6-.4-1.3c-.6-.8-.8-1.7-.4-2 .3-.4 0-.7-.8-.7-1.1 0-1.1-.2.1-1 1.2-.8 1.2-1 .1-1-.8 0-1.1-.3-.8-.6.3-.4.2-1.5-.3-2.5-.7-1.2-.6-2 .2-2.5.7-.4 1-.4.6.1-.4.4-.1 2 .8 3.6.8 1.6 1.4 3.1 1.4 3.4 0 .3.1.7.1 1 .1.3.3.9.4 1.5.1.5.4 1.2.5 1.5.1.3.4.9.5 1.5.1.5.3 1.1.4 1.2.2.2.5 1.4.7 2.8.3 1.3.9 2.9 1.4 3.4.4.4.6 1.5.3 2.4-.5 1.1-.3 1.3.8.7.8-.4 1.1-.5.7 0-.4.4-.2 1.5.4 2.4.7.9.8 1.3.4.9-.5-.4-1.4 0-2.1.9-.9 1.3-.8 2.3.6 5.2.9 2 1.5 3.9 1.2 4.3-.8 1.5.5.8 1.8-.9 1-1.1 1-1.4.2-.9-1.3.7-1.6 0-1.6-3.6 0-1-.3-1.6-.7-1.3-.4.2-.7-.2-.7-1 0-2.1 1-1.9 2.4.5.9 1.3.9 2.1.2 2.6-.8.4-.7.9.2 1.5.8.4 1.4 1.2 1.5 1.6 0 .4.4 1.6.8 2.5.4.9.9 2.2 1.1 3 .2.7.6 2.3 1 3.5.4 1.2.6 2.5.5 2.9-.1.4.4 1 1 1.4.8.5.7.9-.3 1.3-1.1.4-1.5 0-1.2-1.3.2-1.1-.1-2.2-.6-2.5-.5-.4-.7-1.1-.4-1.6.3-.5-.1-.6-1-.2-1.3.5-1.4.7-.3 1.4.7.5.9.9.3.9-.5 0-.4.5.2 1.1.6.6.9 1.8.6 2.5-.3.8 0 1.4.7 1.4.6 0 .8.4.5 1-.3.6.1.7 1 .3 1.4-.5 1.4-.8.3-1.5-1.1-.8-1.1-.9 0-.6.8.2 1.2.6 1 .9-.2.3.3 1.3 1 2.2.8.9 1.1 2.1.7 2.7-.3.5-.1 1 .5 1 .7 0 1 .6.7 1.4-.3.8-.1 1.6.4 1.8.6.2 1.1 1 1.2 1.8.2.8.6 2.1 1 2.7.5.7.5 1.3.1 1.3-.3 0 .1 1.1 1 2.5s1.2 2.5.7 2.5-1.2-.6-1.4-1.3c-.4-.9-.6-.9-.6.1-.1.8-.6 1-1.3.6-.9-.5-.9-.2.1.9.7.9 1 1.7.6 1.7-.5 0-.1.8.8 1.8 1 1 1.4 2.1 1.1 2.5-.4.3.1 1.3 1 2.2.9.9 1.4 2.1 1.1 2.6-.4.5 0 .9.7.9.9 0 .9.3-.2 1s-1.1 1-.2 1c.7 0 1.1.4.7.9-.3.5-.1 1.2.5 1.6.6.4.8 1 .5 1.5-.3.5-.1 1.1.5 1.5.6.4.7 1.1.4 1.7-.4.7-.2.8.5.4.6-.4.9-1.1.7-1.5-.3-.4.1-.8.9-.8s1.2.4.9.8c-.3.5.3 2 1.2 3.4.9 1.4 1.4 2.5 1.1 2.5-.3 0 0 1.2.8 2.7.8 1.5 1.2 3 1 3.4-.3.4.2 1.2 1 1.9.7.6 1.1 1.8.8 2.6-.3.8-.2 1.4.3 1.3 2.1-.4 3.2.2 3.7 2.1.3 1.3 1 1.8 2.1 1.4 1-.4 1.6-.1 1.6.9s.7 1.5 2 1.2c1.1-.2 2.2 0 2.5.5.3.5 1.2.7 2 .4.9-.4 1.3.1 1.2 1.5-.1 1.2-.5 2.1-1 2.1s-.6-.8-.3-1.8c.5-1.4.4-1.4-.9.2-.8 1.1-1.5 1.4-1.5.8 0-.7-.3-1.1-.7-1-1.2.4-5.4-2.8-4.7-3.5.4-.4-.3-.5-1.4-.2-1.2.2-2.1.1-2.1-.3.3-1.9-.2-2.3-1.6-1.2-1.8 1.5-2-.1-.2-1.9.6-.7.8-1.2.2-1.1-2.4.5-3.4-.1-3-2 .2-1.1 0-1.8-.5-1.5-.5.3-.7-.4-.5-1.5.2-1.1 0-1.8-.5-1.5-.5.3-.7-.4-.5-1.5.3-1.3 0-1.8-.7-1.4-.7.4-.8.3-.4-.4.5-.8.1-1-1-.5-1.6.6-1.5.7.2 2 1 .7 1.4 1.3.9 1.3-.5 0-.4.5.2 1.1.6.6.9 1.8.6 2.5-.3.8 0 1.4.7 1.4.6 0 .9.4.6.8-.7 1.2 3.3 7.4 4.4 6.7.5-.3 1.2.1 1.7.8 1.4 2.5 5.7 4.1 11.1 4.2 2.9.1 5.5-.2 5.8-.7.3-.5 1-.5 1.6-.2.7.5.8.2.3-.6-.6-.9-.4-1.2.6-.8.8.3 2.8-.6 4.5-2.1 1.6-1.4 2.4-2.2 1.7-1.7-.8.5-1.3.4-1.3-.2 0-.6.8-1.3 1.8-1.6 3.2-1.1 8-10.6 8.1-16.3.1-1.8-2.1-9.5-4.8-17-4.4-12.3-28.6-81-42.6-120.8-2.9-8.3-8.1-22.9-11.5-32.5-3.4-9.6-8.4-23.7-11.1-31.4-5.4-15.6-7.7-19.6-13.2-22.6-4.9-2.8-13.1-3.4-17.7-1.4zm-4.5 46.4c-.3.5-.1 1.1.5 1.5 1.3.8 1.3 2.8-.1 2.3-.6-.2-1-.7-.9-1.2.1-.5-.4-1.3-1.2-1.7-1.1-.7-1-.9.1-.9s.9-.4-.5-1.6c-1.8-1.4-1.8-1.5.4-.4 1.2.6 2 1.5 1.7 2zm22.5 63.1c.7 1.1.9 2.4.5 2.7-.7.7-3.5-2.5-3.5-4 0-1.6 1.9-.8 3 1.3zm4.3 14.5c-.5 1.3-.3 1.5.8.9.8-.4 1.1-.5.7 0-.4.4-.3 1.4.3 2.1.6.8.6 1.4 0 1.8-.9.6-2.3-.8-2.8-2.9-1.4-6.5-1.4-6.8.2-5.2.9.9 1.2 2.3.8 3.3zm29.2 81.2c.4 1.5.6 2.8.6 2.9-.2.7-1.6.2-1.6-.5 0-.4-.5-1.4-1-2.2-1.4-2.3-1.5-3.9 0-3.4.7.3 1.6 1.7 2 3.2zm2.2 4.9c-.4.3 0 1.7.8 3 1.4 2.1 1.4 2.3-.1 2.3-1 0-1.4-.3-1.1-.6.3-.4.2-1.4-.3-2.4-.8-1.6-.4-3 .8-3 .3 0 .2.3-.1.7zm2.2 7.7c.9 1.1.8 1.5-.6 2-1 .4-1.4.4-1 0 .4-.4.2-1.3-.4-2.1-.7-.8-.8-1.3-.1-1.3.5 0 1.5.6 2.1 1.4zm17.1 31.2c0 .3-1.3-.4-3-1.6-1.6-1.2-3-2.4-3-2.6 0-.3 1.4.4 3 1.6 1.7 1.2 3 2.4 3 2.6zm15.8-2.9c-.7.9-1.5 1-2.2.4-.8-.7-1.6-.4-2.3.9-1 1.6-1.9 1.7-5.2 1.1-.2-.1.2-.8.9-1.6s1.5-1.3 1.9-1.1c.4.3 1.2.1 1.9-.3.6-.4 2.3-.7 3.6-.7 2 0 2.3.3 1.4 1.3z"/><path d="M726.5 451.1c-.3.4.2.6 1 .5 2.1-.3 2.8-1.3 1-1.3-.9 0-1.8.4-2 .8zM178.3 254.7c-5 1.7-11.4 8.5-13 13.8-5.5 17.8 13.9 34.1 30.4 25.6 8.2-4.2 12.3-11.2 11.9-20.1-.7-15.2-14.8-24.5-29.3-19.3zM642.1 259.4c-.9 1.1-.9 1.5.1 1.8.7.3 1.4 1.3 1.4 2.4.4 4.5 3.1 8.9 3.1 4.9 0-.8-.4-1.5-.9-1.5s-.7-.4-.3-.9c.3-.5.1-1.2-.4-1.6-.5-.3-.8-1.4-.6-2.5.3-1.3 0-1.8-.7-1.4-.7.5-.9.1-.5-.9.8-2.1.3-2.2-1.2-.3zM629.8 270.5c-.4.4-26.3 9.7-52.8 19-5.2 1.8-13.3 4.7-18 6.3-10.4 3.7-42.9 15.1-64.5 22.7-25.7 9-49.6 17.5-55 19.5-2.7 1-10.2 3.6-16.5 5.8-6.3 2.2-22.5 8-36 12.7-13.5 4.8-27.6 9.8-31.5 11.1-19.6 6.7-23 8.1-22.9 10 .2 2.3.9 5.4 1.7 7.4.3.8.7 2.4.9 3.5.2 1.1.8 2.4 1.3 2.8.6.5.4.7-.4.5-1.3-.4-2-2.1-2.3-5.5-.1-.6-.8-.9-1.6-.6-1.1.5-1.1.7-.1 1.4.8.4 1 1.1.6 1.5-.4.4-.1 1.4.5 2.2.7.8 1.2 2.4 1.3 3.5 0 1.1.7 2.2 1.5 2.4 1.3.4 1.3.3 0-.6-1.3-1-1.3-1.1 0-1.1s1.3-.1 0-1c-1.3-.8-1.2-1 .4-1 1.2 0 1.6.5 1.2 1.5-.3.8-.1 1.5.5 1.5s.9.6.6 1.4c-.3.7.1 2.3.9 3.4.7 1.1 1.5 2.8 1.7 3.9.2 1 .7 2.6 1.1 3.5.4.9.8 2.2 1 3 .4 2.8 1.7 4 3.2 2.7.8-.6 1.4-.8 1.4-.4s.7.2 1.5-.5 1.5-.9 1.5-.5.7.2 1.5-.5 1.5-.9 1.5-.5.6.2 1.3-.4c.8-.6 1.7-.8 2-.4.4.3 1.5-.1 2.5-1 1.7-1.5 4.5-1.8 5.8-.4.4.3-.6.4-2.1.1-1.9-.3-2.4-.1-1.9.7.5.8.3.9-.6.4-.9-.6-1.1-.4-.5.6.5.8.5 1.1 0 .7-.4-.4-1.4-.3-2.2.3-1 .9-1.3.8-1.3-.1s-.3-1-1.3-.1c-.8.6-1.8.7-2.2.3-.5-.4-.5-.1-.1.6s.4 1.2-.1 1.1c-.4-.1-1.1 0-1.5.1-.5.1-1.3.3-2 .4-.6 0-1.3.8-1.5 1.6-.4 1.2-.3 1.2.5.2.5-.8 1.2-1.3 1.6-1.2.4.1 1.7-.1 2.9-.5s2.7-.9 3.2-1c.6-.2 1.3-.4 1.8-.5.4-.1 1-.3 1.5-.4.4-.1 1.7-.7 3-1.4 1.2-.7 2.2-1 2.2-.6 0 .3.7.1 1.5-.6s1.5-.9 1.5-.5.7.2 1.5-.5 1.5-.9 1.5-.5.6.2 1.3-.4c.8-.6 1.6-.9 1.9-.6.3.3 1.1-.1 1.7-.9.7-.8 1.9-1.2 2.7-.9.8.3 1.4 0 1.4-.6s.7-.8 1.5-.5c.8.4 1.5.2 1.5-.4 0-.6.8-.9 1.8-.7.9.1 2.3-.2 3.1-.8.7-.6 2-1.2 2.9-1.3.9-.2 2.5-.7 3.7-1.3 3.6-1.7 6-2.4 7.3-2.2.6.1 1.2-.5 1.2-1.4 0-.8-.5-1.5-1.1-1.5-.5 0-.8.4-.4.9.3.6-.4.8-1.5.6-1.1-.2-1.8 0-1.6.4.3.4-.1.8-.9.9-.8.1-2.2.3-3 .4-.8.1-1.1.6-.8 1.2.3.6.3.8-.2.4-.4-.4-1.3-.3-2 .2-.8.7-1.2.5-1.2-.5 0-.8.4-1.2.8-.9.4.2 1 0 1.4-.6.4-.6 1.1-.8 1.6-.5.5.4.9.1.9-.4 0-.6.3-1 .8-1 .4.1 1 0 1.5-.1.4-.1 1-.3 1.5-.4.4-.1 1.7-.7 3-1.4 1.2-.7 2.2-1 2.2-.7 0 .3 1.6-.1 3.5-.9 2-.9 3.9-1.6 4.3-1.7 1.6-.4 3.9-1.2 6.9-2.5 3.7-1.7 4.3-1.7 4.3-.3 0 .5-.6.7-1.2.3-1-.5-1-.3 0 .7 1.1 1.2 1.4 1.2 2.2-.1.5-.8.6-1.8.3-2.4-.3-.5-.1-.6.5-.2.6.3 1.3.2 1.7-.4.4-.6 1.1-.8 1.6-.5.5.4.9.2.9-.3s.6-.9 1.3-1c4.4-.6 5.7-1 7.1-2.1.8-.7 1.9-1 2.5-.7.5.3 1.1 0 1.4-.6.3-1 .8-1 1.8.1.8.8.9 1.1.2.7-.6-.3-1.5-.1-1.8.5-.4.5-1.3.8-2.1.5-.8-.3-1.1 0-.8.9.5 1.1 1.1 1.1 3.7-.4 1.8-1 3.8-1.6 4.5-1.4.6.3 1.2 0 1.2-.7 0-.6.6-.8 1.3-.4.9.5.9.3-.1-.7-.8-.9-1.5-1-2-.4-.9 1.3-3.2 1.8-3.2.7 0-.4 1.4-1.3 3-1.9 1.7-.6 2.8-.8 2.5-.3-.7 1.1 2.7 2.3 3.4 1.3.3-.5 1.3-.8 2.1-.8 2.2.2 5-1.4 5-2.8 0-.8-.4-.7-1 .3-.5.8-1.2 1.1-1.6.7-.4-.4-1.3-.2-2.1.4-.7.6-1.3.8-1.3.4s-.7-.2-1.5.5c-1 .9-1.5.9-1.5.1 0-1 1.3-1.5 3.3-1.2.4 0 .7-.3.7-.8 0-1.7 5-1.9 6-.2.6 1.1.9 1.2 1 .3 0-.7.4-1.1.9-.8 1.1.7 4.1-.3 4.1-1.3 0-.4-1-.8-2.2-.8-1.8-.2-1.9 0-.8.7 1.1.7 1 .9-.8.7-1.2 0-2.2-.4-2.2-.8 0-1 3-2 4.1-1.3.5.3.9 0 .9-.7s.3-.9.7-.6c.3.4 1.2.2 2-.4.7-.6 1.3-.8 1.3-.4s.7.2 1.5-.5 1.5-.9 1.5-.6c0 .4.7.1 1.5-.8.9-.8 2.6-1.3 4.1-1 1.8.3 2.3.1 1.8-.7-.4-.7-.3-.9.4-.5.6.3 1.3.2 1.7-.4.3-.5 1.4-1 2.3-1 .9 0 3-.7 4.6-1.5 1.5-.8 3.2-1.2 3.7-.9.5.3.9-.1.9-.8.1-.8.4-.7 1 .4 1 1.6 4.3 1.5 6.6-.3.6-.5 1.4-.5 1.9-.1.4.4.2-.4-.5-1.8s-.9-2.2-.5-1.8c.5.4 1.4.3 2.2-.4.7-.6 1.6-.8 2-.5.3.4 1.3.1 2.1-.6 1-.8 1.3-.8.9-.1-.4.7 0 1.5.8 1.8 1.7.6 5.5-1.3 5.5-2.8 0-.4-.7-.3-1.5.4s-1.5.8-1.5.3c0-1.8 5-3.4 6.8-2.3 1.5.9 1.5 1-.2.8-1-.2-2 .3-2.2 1-.1.7 0 .8.2.3.3-.6 1.1-.8 1.9-.5.7.3 1.6 0 2-.5.3-.6 1.1-.8 1.7-.5.7.4.8.2.4-.5-.4-.6-1.1-.9-1.6-.6-.5.3-1.2 0-1.6-.7-.4-.7-.4-1 .1-.6.4.4 1.5.2 2.3-.5 1.3-.9 1.4-.9.8 0-.7 1.3.7 1.8 2.9 1.3.6-.1 1.5-.3 2.2-.3.7 0 .9-.5.6-1-.4-.6 0-.8.9-.4.9.3 2.5-.1 3.7-.9 1.2-.8 2.5-1.3 3-.9.5.3 1.2.1 1.6-.5.4-.6 1.1-.8 1.6-.5.5.4.9.2.9-.2 0-.5 1-1 2.2-1 1.3-.1 2.4-.7 2.6-1.3.2-.5.8-.7 1.3-.4.6.3 1.6 0 2.4-.6.8-.7 1.5-.9 1.5-.5s.7.2 1.5-.5 1.5-.9 1.5-.6c0 .4 1 .1 2.3-.6 1.2-.7 2.6-1.1 3-1 .4.1 1.8-.3 3-1s2.6-1.1 3.2-.9c.5.1.6-.1.2-.5-1.2-1.2-3.8-1.4-3.1-.2.4.7.2.8-.4.4-.7-.4-1.2-.2-1.2.3 0 1.6-1.7 1.4-2.3-.2-.3-.8 0-1.4.6-1.5 2.7-.2 6-1.2 7.3-2.3.8-.6 1.4-.8 1.4-.4s.6.2 1.3-.4c.8-.6 1.7-.8 2-.4.4.3 1.2.1 1.9-.4 3-2.3 9.4-4.1 10.9-3.1 1.1.8 1.1.9-.3.4-1-.3-2-.1-2.3.5-.4.5-1.1.6-1.7.3-.7-.5-.8-.2-.3.6.6 1 .4 1.2-.8.7-.9-.3-2.6.3-3.9 1.4l-2.3 2 2.3-1.1c1.2-.6 2.2-.8 2.2-.4 0 .3 1.1-.1 2.5-1s2.5-1.4 2.5-1c0 .3 1.1-.1 2.5-1s2.5-1.4 2.5-1.1c0 .3 1 0 2.2-.6 1.2-.7 3.1-1.2 4.2-1.3 1.1-.1 2.1-.7 2.2-1.4.1-.7 0-.8-.3-.2-.2.5-.9 1-1.4 1-.6 0-.7-.5-.3-1.1.3-.6-.7-.4-2.4.5-1.6.8-3.3 1.2-3.7.8-.5-.4-.5-.2-.2.5.8 1.2-1.7 1.2-3-.1-.4-.4-.3-.7.2-.6.6.1 1.3.1 1.8 0 .4-.1 1-.3 1.5-.5.4-.1 1.9-.7 3.3-1.3 4.8-2 6.4-1.9 6.2.3-.1 1.1 0 1.4.3.7.3-.6 1-.9 1.6-.6.6.4.5-.2-.1-1.5-1-1.8-.9-2 .5-1.4 1.3.5 1.5.3.9-.7-.5-.8-.4-1.1.3-.6.6.4 1 1.2.9 1.9-.2.7.1.2.7-1.1 1.1-2.5 2.3-2.9 2.3-.7 0 .8-.4 1.5-.9 1.5-.4 0-.8.5-.8 1.1 0 .8.4.8 1.5-.1.8-.6 1.3-1.7 1.2-2.3-.2-1.1 3.9-3.5 7.3-4.3 1.1-.2 3-.6 4.2-.9 1.2-.2 2.4-.8 2.7-1.3.3-.4 1.3-.7 2.1-.7s2.9-.7 4.5-1.7c3.4-2 4.5-2.2 4.5-.8 0 .6-.3.9-.7.9-2-.3-3.4.2-2.8 1.1.3.5 0 .7-.8.4-.8-.3-1.8 0-2.2.5-.3.6-1.1.9-1.6.6-.5-.4-.9-.1-.9.5s-.5.8-1.2.4-.8-.3-.4.5c.6.9 1.3.8 3.1-.3 1.3-.9 3.1-1.3 3.9-1 1 .4 1.6.1 1.6-.9 0-.9.8-1.3 2.5-1.2 1.4.2 2.7-.1 3.1-.6.3-.5 1-.7 1.5-.4.5.4.9.1.9-.5s.4-.9.9-.5c.5.3 1.2.1 1.5-.4.4-.5.1-1.3-.5-1.7-.7-.4-.9-.3-.6.3.3.5 0 1-.8 1.1-.8.1-2.2.3-3 .4-.8.1-1.1.6-.8 1.1.3.6.1.7-.5.3-1.7-1.1-1.5-2.9.3-2.2.8.3 1.5.1 1.5-.5s.4-.8.9-.5c.5.4 1.1.2 1.3-.4.1-.5 1.3-.7 2.5-.4 1.3.4 2 1 1.7 1.5-.9 1.5.3 1 1.6-.7.8-.8.9-1.4.4-1.3-2.6.5-2.6-.4.2-1.9l3-1.7-6.4-18.3c-4.9-13.8-6.9-18.2-8.2-18.2-.9 0-1.9.2-2.2.5zm-72.6 70.7c-.5.5-1.8 1.1-2.8 1.3-1.1.2-2 .4-2.1.5-.2.2-.7.3-1.2.4-.5 0-1.3.4-1.7.8-1.2 1.3-2.4.9-2.4-.8 0-1 .6-1.4 1.5-1.1.8.4 1.7.2 2-.4.4-.5 1.1-.7 1.6-.4.5.4.9.1.9-.5 0-.7.8-.9 2.1-.5 1.6.5 1.9.4 1.4-.5-.6-.9-.4-1.1.4-.5.8.4.9 1.1.3 1.7zm-11.9 3.9c-.5.5-2 1.1-3.2 1.4-1.3.2-2.9.9-3.5 1.5-.7.5-1.6.7-1.9.3-.4-.3-1.3-.1-2 .5-.8.7-1.7.9-2 .5-.4-.3-.7-.1-.7.6s-.5.9-1.1.5c-1.7-1 2.6-3.3 6.9-3.6.6-.1 1.2-.5 1.2-1 0-.4.3-.7.8-.7 2.7.5 5.2-.2 4.6-1.3-.5-.7-.3-.8.5-.3.8.4.9 1.1.4 1.6zm-16.5 5c-.2.6-.7 1-1.2.9-.5-.1-1.3.4-1.7 1.2-.7 1-.9.8-.9-.6 0-1.2.5-1.6 1.5-1.2.8.3 1.5.1 1.5-.4 0-.6.3-1 .6-1s.4.5.2 1.1zm-16.4 6.4c.3.8.1 1.5-.4 1.5-.6 0-1-.7-1-1.5s.2-1.5.4-1.5.6.7 1 1.5zm-10.9 4.6c-.8 1.2-3.5 1.2-3.5-.1 0-.5.7-.6 1.7-.3 1.2.5 1.4.3.8-.7-.5-.9-.4-1.1.4-.6.6.4.9 1.2.6 1.7zM389 399.9c0 1.3-2 2.5-4.2 2.7-1 .1-2 .3-2.3.4-.3.1-.9.4-1.5.5-.5.1-1.2.3-1.5.4-.3 0-.7 0-.9-.2-.2-.1-1.3.7-2.5 1.7-1.2 1.1-2.1 1.6-2.1 1.1 0-.4-.7-.2-1.5.5s-1.5.9-1.5.6c0-.4-.6-.4-1.2.1-1.9 1.1-3.8 1.2-3.8.2 0-.8.8-1.1 2.6-.8.4 0 1.1-.5 1.5-1.3.7-1.1.9-1.1.9 0 0 1 .4.9 1.6-.2.8-.9 1.9-1.4 2.4-1.1.4.3 1.3-.2 2-.9.6-.8 2-1.3 3.1-1.1 1 .2 1.9 0 1.9-.6 0-.5.9-.9 1.9-.9 1.1 0 2.3-.5 2.6-1 .8-1.3 2.5-1.3 2.5-.1zM649.4 280.5c-.9 2.2.1 2.9 1.5 1.1.8-1 .9-1.6.1-2.1-.5-.3-1.3.1-1.6 1zM652.1 286.9c-.9.6-1 1.1-.2 1.5.6.4.9 1.1.6 1.6-.3.5-.1 1.1.5 1.5.6.4.7 1.1.4 1.7-.5.7-.2.8.5.4.8-.5 1.2-.3 1 .5-.3 2.5.1 3.9 1 3.9.6 0 .8-1 .5-2.3-.3-1.2-.6-2.7-.8-3.3-.1-.7-.8-1.9-1.5-2.8-.7-.8-1-2-.6-2.6.7-1.2.4-1.2-1.4-.1zM829 296c-3.1 3.1-2.5 5.7 1.8 7.9 4.6 2.4 8.8-2.9 5.8-7.4-2-3-4.9-3.2-7.6-.5z"/><path d="M616.6 320.2c.3.5-.6.7-2 .4-1.8-.3-3.3.2-4.8 1.7-1.1 1.2-1.8 1.6-1.4.9.4-.6.2-1.2-.3-1.2-.6 0-1.1.7-1.1 1.5 0 1.9 1.4 1.9 3.4 0 .8-.9 1.8-1.6 2.1-1.5.6 0 1.6-.1 3-.5.6-.1 1.6-.3 2.3-.3 1.7-.3 1.5-1.9-.3-1.9-.8 0-1.2.4-.9.9zM642.5 323.9c-29.5 10.4-43.8 15.5-49.5 17.6-3.6 1.3-16.6 6-29 10.4-20.8 7.3-32.7 11.5-94 33.2-12.4 4.4-24.5 8.7-27 9.6-2.5.8-5.4 1.9-6.5 2.3-1.1.5-6.7 2.5-12.5 4.5s-16.8 5.9-24.5 8.7c-7.7 2.7-16 5.6-18.5 6.4-2.5.8-5.4 1.9-6.5 2.4-1.1.5-6.9 2.6-13 4.7-11.6 4.1-11.2 3.7-10.2 9.8.1 1.1.8 2.9 1.4 4 .6 1.1.9 2.8.7 3.7-.2 1-.6 2.6-.8 3.5-.2 1-.1 2.2.3 2.8.3.5.6 1.6.7 2.3.5 2.8 1.4 4.3 2.4 3.7.5-.3 1-.1 1 .4 0 .6-.5 1.1-1.1 1.1-.8 0-.8.5.1 1.5.7.8.9 1.5.5 1.5s-.2.7.5 1.5 1 1.5.6 1.5 0 1 .9 2.3c.8 1.3 1.2 2.7.8 3.2-.5.4-.3.5.4.1.8-.4 1.1.3 1.1 2.3-.1 3.2 1.6 6.1 3.6 6.1.6 0 .4-.5-.4-1s-1-1-.4-1 1.8.8 2.5 1.7c1 1.1 1 1.4.2.9-.7-.4-1.3-.2-1.3.3 0 .6.5 1.1 1.1 1.1.5 0 .8.4.5.9-.3.4.1 1.7.9 2.7 1.8 2.3 1.9 3.7.3 3.2-.6-.2-1.2-1.1-1.4-2-.3-2.2-3.4-6.6-3.4-5 0 .8.6 2 1.4 2.8.8.7 1.2 2.2.9 3.2-.2 1 .2 2.4 1.1 3.1.8.7 1.2 1.9.9 2.7-.3.8 0 1.4.7 1.4.6 0 .8.4.5 1-.3.5.1 2.3 1 4 .8 1.6 1.5 3.2 1.5 3.5 0 .9.5 2.5 1.4 4.7.5 1 1.3 1.8 1.8 1.8.7 0 .7-.4.1-1.3-.6-.6-.9-2-.8-3 .2-1-.1-1.4-.7-1.1-.6.4-.8.2-.4-.4.3-.6.1-1.4-.5-1.7-.5-.4-.8-1.4-.5-2.2.3-.8.1-1.1-.4-.8-.6.3-1.1.3-1.1-.2-.6-3.5-.5-5.3.2-5.3.8 0 1.3 1.5 1 3.2 0 .5.4.8 1 .8s.8.9.4 2.1c-.5 1.6-.4 1.9.5 1.4.8-.5 1.1-.4.6.3-.3.6-.2 1.3.4 1.7.5.3 1 1.7 1 3.1 0 1.3.6 2.4 1.3 2.4.6.1.1.7-1.3 1.5-1.4.8-1.9 1.4-1.2 1.5.7 0 1.2.6 1.1 1.2-.3 2.6.1 3.9 1.2 3.3.6-.4 1-.1.8.6-.1.8-.1 2.5.1 3.9.1 2.3.2 2.3 1 .5 1.2-2.8 1.2-3.7-.2-2.9-.7.5-.8.3-.3-.6.5-.8.1-1.8-1-2.7-1.2-.8-1.4-1.3-.6-1.3 1.1 0 1.1-.3.1-1.5-.9-1-.9-1.5-.1-1.5 1 0 1.5 1.3 1.2 3.2 0 .5.3.8.8.8s1.1 1 1.4 2.2c.4 1.5 1 1.9 1.9 1.2.7-.6 2-1 2.8-.9.8 0 1.9-.4 2.3-1 .5-.6.7-.4.4.5-.2.8-.9 1.6-1.5 1.6-.7.1-1.4.3-1.7.4-.6.3-2.2.7-3.5.9-.5 0-1 .5-1 1 0 1.2 1.8.9 5.9-1.2 1.8-.9 3.7-1.4 4.2-1.2.4.3 1 .1 1.4-.5.4-.6 1.1-.8 1.6-.5.5.4.9.1.9-.4 0-.6.3-1 .8-1 .4.1 1 0 1.5-.1.4-.1 1-.3 1.5-.5 5.1-1.4 6.2-1.9 6.2-2.7 0-.6-.7-.8-1.5-.4-2.4.9-1.7-.8.8-2 1.8-.8 2.4-.8 2.4.2 0 .7-.5 1-1.1.7-.6-.3-.8-.2-.3.2 1.1 1.2 4.7 1.4 4 .2-.4-.6 0-.8.9-.5.8.4 1.5 0 1.5-.7 0-1.1-.5-1.1-2.1-.4-2 1-2.1 1-.2-.5 2.5-2 3.6-2 3.6-.1s1.9 2 2.6.2c.3-.8 1.5-1.3 2.7-1.2 1.2.1 3.1-.3 4.2-.8 1.1-.6 2.4-1 2.8-.9.4.1.3-.7-.3-1.8s-.7-2-.3-1.9c.4.1 1 0 1.3-.1.5-.2 2.9-.7 5.3-1.3.6-.1 1.7-.6 2.4-1 .6-.4 1.4-.3 1.8.3.6.9-.1 1.4-1.7 1.1-.5 0-.8.3-.8.9 0 1.3 1.7 1.3 2.5 0 .4-.6 1.1-.7 1.7-.4.5.4.4-.4-.2-1.7-.7-1.3-.9-2.1-.5-1.7.5.4 1.4.3 2.2-.4 1-.8 1.7-.8 2.6.1.9 1 .9 1.2-.2.9-.7-.2-1.6.4-1.8 1.2-.3.9-.1 1.1.4.5.7-.9 1.5-1.2 5.3-2 .8-.2 1.6-.4 1.8-.5.1-.2.7-.4 1.2-.5.6-.1 1.2-.4 1.5-.5.3-.1.8-.3 1.3-.4.4-.1 1.3-.5 2-.9.6-.5 1.6-.5 2.2-.2.6.3.7-.1.4-1-.5-1.1-1-1.3-1.9-.5-.6.5-1.6.6-2 .2-.5-.4-.5-.2-.1.5.4.8 0 1.1-1.4.8-1.1-.2-2.2.1-2.5.6-.4.5-1.1.6-1.7.3-.6-.4-.8-.3-.5.2.3.5-.3 1-1.4 1-4.1 0-.5-2.6 4.2-3 .9 0 2.2-.6 3-1.2.8-.5 2.1-1 2.9-.9.8 0 1.9-.4 2.3-1 .6-.6.7-.4.4.6-.4 1.2.1 1.5 2 1.3 1.4-.1 2.9-.7 3.2-1.2.3-.5 1.4-.8 2.3-.6 1.5.2 1.6-.1.7-1.7-.5-1.1-.6-1.9-.2-1.8.4.1 1 0 1.3-.1 1.9-.7 3.9-.7 3.4.1-.3.5-1 .6-1.6.3-.7-.5-.8-.2-.3.6.6.9.4 1.1-.5.5-.9-.5-1.1-.4-.6.4.6.9 1.1.9 2.1.1.8-.7 1.8-.9 2.3-.6.6.3 1.5-.1 2.2-.9.7-.8 1.6-1.2 2.1-.9.5.3 1.9-.1 3.1-.8 1.3-.7 2.7-1.1 3.1-1 .4.1.3-.8-.4-2-.6-1.3-.8-2-.4-1.6.5.4 1.4.3 2.2-.3.7-.6 1.3-.8 1.3-.4s.6.3 1.3-.2c.6-.5 1.8-.8 2.5-.7.6.1 1.7.2 2.3.3.5 0 .7.7.3 1.3-.6 1-.5 1 .8.1.8-.7 1.7-1.1 2-.8.2.3.5-.2.5-1 0-1.1-.4-1.2-1.3-.4-.9.7-1.4.6-2-.3-.4-.7-.4-1 0-.6.4.3 1.9 0 3.3-.7s3.2-1.1 4.1-.8c1.1.5 1.3.3.7-.7-.5-.8-.4-1.1.3-.6.6.3 1.3.2 1.7-.4.8-1.3 2.5-1.3 2.5.1 0 .5-.5.7-1.2.3-.7-.4-.8-.3-.4.5.4.6.4 1-.1.9-.4-.1-1.9.4-3.2 1.1-1.8 1-2.2 1-1.6 0 .5-.8.4-1-.3-.5-1.9 1.1-1.4 2.9.6 2.1.9-.4 2.2-.8 2.8-.9.7-.1 1.9-.8 2.8-1.5.9-.7 1.6-1 1.6-.6s.7.2 1.5-.5 1.5-.9 1.5-.5.7.2 1.5-.5 1.5-.9 1.5-.5.6.2 1.3-.4c.8-.6 1.8-.7 2.2-.3.5.4.5.2.2-.5-.5-.8-4.2-1.1-4.2-.3 0 .1-.9.3-1.9.5-1 .2-2.3 1-2.7 1.7-.7 1-.9.9-.9-.4 0-1.4 2.7-2.6 7-3.3.3 0 1.1-.4 1.9-.9.9-.6 1.2-.5.8.1-.4.6-.1 1.3.6 1.6 1.8.7 4.3-.8 2.9-1.7-.6-.3-1.3 0-1.5.6-.3.8-.6.6-.6-.5-.1-2.1 1.3-2.2 3.3-.1.9.9 1.6 1.1 1.6.4 0-.6.4-.8 1-.5.5.3 2 0 3.2-.7 1.3-.7 2.6-1.3 3.1-1.4.4-.1.9-.3 1.2-.4.3-.1 1-.4 1.5-.5.6-.1 1.1-.3 1.3-.5.1-.1 1.1-.3 2.1-.5s2.2-.7 2.5-1.2c.3-.4 1.2-.8 1.9-.9 2.8-.2 3.2-.5 3.2-2.4 0-2.2 1.5-2.7 2.6-.8.5.7.3.8-.6.3-.8-.5-1.1-.4-.7.3.8 1.2 2.5 1.1 4.7-.3 1.5-.9 3.4-1.5 5.6-1.7.6-.1 1.1-.7 1.1-1.5 0-.9-.4-1-1-.4-.5.5-1.6.7-2.5.4-.9-.4-1.3-.2-.9.4.3.5 0 1-.8 1-1.8 0-2-1.6-.2-1.9.6 0 1.7-.2 2.2-.2.6-.1 1.5-.5 2.2-.9.6-.4 1.4-.3 1.8.2.6 1 4.5 1.1 4.5.1 0-.4.6-.7 1.3-.8 1.4-.1 5.1-1 5.5-1.2.3-.4 2-.7 3.7-.9 2.2-.2 1.8-1.7-.5-1.8-1.1-.1-1.8.2-1.5.7.3.5-.3.7-1.5.5-1.1-.2-2.2.1-2.5.6-.4.5-1.1.7-1.6.4-.5-.4-.9-.1-.9.6s-.3.9-.6.6c-.4-.3-1.5-.2-2.5.3-1.2.7-2 .6-2.5-.2-.4-.7-.3-.8.4-.4s1.2.3 1.2-.2.6-.9 1.3-1c1.8-.1 3.9-.7 7.2-2.1 4.5-1.9 5.9-2 7.1-.3.9 1.2 1.3 1.2 1.9.2.5-.9.4-1.1-.3-.6-.7.4-1.2 0-1.2-1s.3-1.4.6-1.1c.4.3 1.6 0 2.6-.8 2.8-1.9 5.3-.9 3.6 1.4-1.2 1.5-1.1 1.5.7 0 1.1-.9 2.8-1.5 3.7-1.4.9.2 2.2-.3 2.8-1 .6-.8 1.7-1.2 2.5-.9.7.3 1.6 0 2-.5.3-.6 1-.9 1.5-.6.4.3 1.3-.2 2-1 .6-.7 1.8-1.1 2.6-.8.8.3 1.4.1 1.4-.4s.6-1 1.3-1.1c1.2-.1 4.7-.9 5.7-1.2.3-.1.9-.2 1.3-.1s.3-.8-.3-1.9c-.6-1.1-.7-2-.3-1.9.4.1 1.7-.1 2.8-.5 7-2.7 9.2-3.3 10.4-2.8.9.3 1.1 0 .6-.8-.5-.8-.4-1.1.3-.6.6.4 1 1.2.8 1.9-.1.7-.1.9.1.4.3-.4.9-.4 1.5-.1.6.4.6-.1-.1-1.4-.9-1.7-.8-2 .7-1.7.9.1 2.3-.2 3-.8.8-.6 1.2-.6 1.2.2 0 1.1-1.4 1.5-3.5 1.1-.5-.1-.5.4.2 1.1.9.9 1.6.9 2.6.1.8-.7 1.7-.9 2-.6.4.4.5-.3.2-1.4-.3-1.6 0-1.9 1.2-1.5 1.2.5 1.4.3.8-.7-.5-.8-.4-1.1.2-.7.5.3 2.2-.1 3.7-.9 3.4-1.7 3.6-1.7 3.6-.4 0 .5-.7 1-1.5 1s-1.5.8-1.5 1.7c0 1.3.2 1.5.8.5.5-.7 2.2-1.5 3.7-1.8 1.6-.3 3.5-1 4.2-1.6.7-.6 1.3-.7 1.3-.3 0 .4.6.3 1.3-.3 1.2-1.1 1.7-1.2 4.2-1.2.8 0 1.2-.6.9-1.4-.8-2.1 3.4-4.2 5-2.5.8.9.8 1-.3.4-1-.6-1.2-.4-.7.4.6.9 1.4.8 3.3-.4 1.4-.9 2.7-1.4 3-1.1.3.3 1.5 0 2.7-.6 1.1-.7 2.6-1.3 3.1-1.4.6-.2 2.1-.5 3.4-.8 1.2-.3 2.9-1 3.7-1.7.8-.6 1.4-.8 1.4-.4s.6.2 1.3-.4c.8-.6 1.7-.7 2.2-.3.4.4.4-.3.1-1.5-.5-1.6-.2-2.3 1.4-2.8 1.5-.5 1.9-1.2 1.5-2.3-.4-1-3.4-9.2-6.6-18.5-3.2-9.2-8.6-24.5-12-34-3.4-9.4-7.2-20.5-8.6-24.5-1.4-3.9-2.8-7.2-3.1-7.1-.4 0-4.3 1.3-8.7 2.8zm34.3 86.3c-.3.7-.9 1.3-1.4 1.3-.5.1-1.9.6-3.1 1.3-1.3.7-2.3 1-2.3.7 0-.3-.8-.1-1.8.4-1.4.7-1.9.6-1.9-.4 0-.7.6-1.1 1.4-.8.7.3 1.3 0 1.3-.7s.8-.9 2.1-.5c1.6.5 1.9.4 1.4-.5-.5-.8-.4-1.1.3-.6.6.3 1.3.2 1.7-.4.9-1.4 2.7-1.2 2.3.2zm-12.1 4c-.2.7-1.2 1.2-2.2 1-1.1-.2-1.4.1-.9.9.4.8.3 1-.5.5-.6-.4-1.8-.2-2.6.4-.8.7-1.5 1-1.5.6 0-.3-.1-.9-.2-1.3-.2-.3.4-.7 1.4-.9.9-.1 2.4-.7 3.5-1.3 2.4-1.4 3.6-1.4 3 .1zm-15.9 5.9c-.2.6-.8 1.1-1.3 1.1-.6 0-1.6.4-2.2 1-.7.6-1.3.8-1.3.4s-1.3 0-2.8.8c-2.5 1.3-2.9 1.3-2.9 0 0-.8.2-1.2.5-.9.2.2 1.7-.2 3.3-1.1 1.6-.8 2.9-1.1 2.9-.7 0 .4.5.2 1.2-.5 1.5-1.5 3.1-1.6 2.6-.1zm-45.7 16.2c-.1.4-.4.7-.8.8-.5.1-1.5.5-2.4.9-1.1.6-1.6.5-1.6-.5 0-.7.6-1.1 1.4-.8.7.3 1.3 0 1.3-.7 0-.6.5-1 1.1-.8.6.2 1 .7 1 1.1zm-6.3 1.8c-.2.6-.6.9-1 .7-.3-.2-1.5.6-2.7 1.6-1.2 1.1-2.1 1.6-2.1 1.1 0-.4-.7-.2-1.5.5-.9.7-1.8 1-2.2.7-.3-.4-1.3-.1-2.1.5-1.7 1.4-6.2 1.9-6.2.6 0-.4.5-.9 1-.9 1.1-.2 2.5-.5 3.8-.9.4-.1 1-.2 1.5-.1.4 0 .7-.4.7-1 0-.5.4-.8.9-.4.5.3 1.2.1 1.5-.4.4-.5 1.4-.8 2.3-.7 1 .2 2.4-.3 3.1-1.1 1.6-1.6 3.5-1.7 3-.2zm-241.1 8c.2 1.1 1 3.3 1.8 4.9.8 1.6 1.2 3.7.8 4.6-.5 1.3-.3 1.5.8.9.8-.4 1.1-.5.7 0-.4.4-.3 1.4.3 2.1.6.8.9 2.1.5 2.9-.3.8-.1 1.5.5 1.5s.8.4.5.9c-.4.5 0 1.2.6 1.4 1 .4 1 .6.1.6-1.1.1-3.4-3.1-3.9-5.2-.1-.4-.3-1-.4-1.5-.2-.4-.4-1.8-.5-3.2-.5-5.9-.4-5.6-1.5-4-.8 1.3-1 1.3-1.1-.3-.2-1.8-.5-3.4-.9-4.2-.5-1-.6-3-.2-3.8.6-1.2 1.5 0 1.9 2.4zM545 457.5c0 1.2-1.9 1.2-2.3 0-.4-.9-.1-1.2.9-.8.7.3 1.4.7 1.4.8zm-7.6 2.7c-.3.5-1.2.7-1.9.4-.8-.3-1.9.2-2.5.9-.7.8-1.6 1.3-2 1-.5-.3-1.1-.1-1.5.5-.4.6-1 .8-1.5.5-.5-.3-1.1-.1-1.5.5-.4.6-1 .8-1.5.5-.5-.3-1.1-.1-1.5.5-.4.6-1.1.8-1.6.5-.5-.4-.9-.1-.9.4 0 1.1-3.5 1-4.6-.2-.7-.7-.1-.8 4.4-1.1.9 0 2.3-.6 3-1.3.8-.7 1.7-1.1 2.2-.8.5.3 1 .1 1.2-.5.1-.5 1.5-1.1 3.1-1.2 1.5-.1 2.7-.5 2.7-.9s1.1-.7 2.5-.7c1.3 0 2.2.5 1.9 1zm-173.9 7.7c-.3.5-.1 1.2.5 1.6.5.3 1 1.1 1 1.6 0 .6-.4.8-.9.5-.5-.4-1.2 0-1.5.6-.3.7-.3.2 0-1.1.4-1.6.2-2.1-.5-1.7-.7.5-.9.1-.5-.8.3-.9 1-1.6 1.6-1.6.5 0 .7.4.3.9zm113.6 13.4c-.6.6-1.9 1.1-3 1.2-1.1.1-2.7.8-3.6 1.5-1.5 1.3-1.7 1.2-1.4-.4.4-1.8 2.5-2.8 6.2-2.7 1 0 1.5-.5 1.1-1.1-.5-.7-.2-.8.5-.3.9.5 1 1 .2 1.8zm-108.2 4.6c2 1.7 2 1.9.4 2.5-1 .4-1.4.4-1 0 .4-.4 0-1.6-1-2.6-2.1-2.4-1.2-2.3 1.6.1zm92.7.3c.4.7.3 1-.1.5-.5-.4-1.6 0-2.6.9-1.1 1-1.9 1.2-2.4.5-.5-.9 1-2 4.2-3 .1-.1.5.5.9 1.1zm-40.1 13.7c.7 1.3-1.3 2.4-4.8 2.6-1.6.1-3.3.8-3.8 1.6-.5.9-.9 1-.9.2 0-1.4 4-4.4 5.1-3.7.4.2 1 0 1.4-.6.8-1.3 2.2-1.3 3-.1zm-22.8 8.3c-.2.7-1.1 1.2-2.1 1-.9-.2-1.6.3-1.6.9 0 .7-.3.9-.7.6-.3-.4-1.6-.1-2.9.7-1.2.8-2.4 1.2-2.8.9-.8-.8 1.4-3.4 2.4-2.8.4.3 2.1-.2 3.6-1 3.5-1.8 4.7-1.9 4.1-.3z"/><path d="M418.5 501c-.3.6.1.7.9.4 1.8-.7 2.1-1.4.7-1.4-.6 0-1.3.4-1.6 1zM862.7 330.6c-.8.8.1 2.4 1.4 2.4.5 0 .9-.7.9-1.5 0-1.5-1.2-2-2.3-.9zM569.6 335.8c-.4.4-1.2.7-1.7.7-1.5 0-1.1 1.9.5 2.1 1.8.3 4.1-2.2 2.8-3-.5-.3-1.2-.2-1.6.2zM676.2 354.7c-.6.2-.9 1-.5 1.6.4.7.8 1.5.8 1.9 0 .5.3.8.8.8h1.3c.4 0 .1-.7-.6-1.5-.6-.8-.9-1.9-.5-2.5.7-1.1.6-1.1-1.3-.3zM504.5 358.9c-.9 1.5 1.4 2.4 2.9 1.2.7-.6 1.6-.9 1.9-.6.4.3.5.2.2-.2-.9-1.1-4.3-1.4-5-.4zM490 364.5c-.7.8-1.6 1.3-2 1-.5-.3-1.1-.1-1.5.5-.4.6-1.1.8-1.6.4-.6-.3-1.8.1-2.8 1-.9.8-2.7 1.4-3.8 1.1-1.2-.2-2.7.3-3.3 1.1-.7.7-1.6 1.1-2.1.8-.5-.3-1.2.2-1.5 1.1-.5 1.2-.9 1.3-1.4.5-.5-.8-.9-.7-1.3.3-.4 1.1 0 1.5 1.4 1.2 1-.2 2.5-.7 3.2-1.2.6-.4 1.5-.8 2-.9.4-.1.9-.3 1.2-.4.3-.1.8-.3 1.3-.5 5.1-1.4 6.1-1.8 5.6-2.6-.3-.6.5-.8 1.9-.5 1.4.2 2.8.1 3.2-.2.4-.4 1.1-.8 1.6-.8.5-.1 1.4-.2 1.9-.3 1.2-.1 1.3-3.1.1-3.1-.5 0-1.4.7-2.1 1.5zM681.5 372c-.3.5-.1 1 .4 1 .6 0 1 .3 1 .7-.3 1.8.2 3.3 1 3.3s.8-2.1.1-4c-.1-.3-.2-.8-.1-1.3.2-1.1-1.7-.9-2.4.3zM331 380.9c0 .7-.5.9-1.1.6-.6-.4-.5.2.3 1.4 1.7 2.7 2.8 2.7 2.3 0-.5-2.5-1.5-3.8-1.5-2zM436.6 383.9c-.4.6-1.3.8-2 .5-.7-.3-2 .1-2.7.9-.8.8-2.2 1.3-3.1 1.1-1-.1-2.2.4-2.9 1.2-.9 1.1-.8 1.4.4 1.4.9 0 1.9-.5 2.2-1 .4-.6 1-.8 1.5-.5.5.3 1.1.1 1.5-.5.4-.6 1.1-.7 1.7-.4.7.5.8.2.3-.6-.6-.9-.4-1.2.7-.8 1.6.7 4.6-.7 3.6-1.7-.3-.4-.9-.2-1.2.4zM687.5 388c-.4.6-.1 1.7.5 2.5.7.8.9 1.5.5 1.5s-.2.6.4 1.3c.6.8.7 1.8.3 2.2-.4.5-.2.5.5.1s1.2 0 1.2 1.1c-.1 3.2.8 5.7 1.9 6.1 1.7.5.9-3.7-.9-4.9-1.2-.7-1.2-.9 0-.9 1.1 0 1-.5-.4-2-1-1.1-1.5-2-1-2 .4 0 .2-.7-.5-1.5-.6-.8-.9-1.9-.6-2.4.4-.5.2-1.2-.3-1.5-.5-.4-1.3-.2-1.6.4zM419 389.8c0 .5-.6.9-1.2 1-1.5.1-5.2 1-5.5 1.2-.2.2-.6.3-1 .4-.5.1-1.7.7-2.8 1.3-1.1.6-2.8.9-3.7.8-1.2-.2-1.5.2-1 1.3.4 1 .7 1.2 1 .4.2-.7.7-1 1.2-.7.5.3 1.9.1 3.2-.4 1.2-.5 2.8-1 3.3-1.1.6-.1 1.5-.6 2.2-1.2.7-.5 1.7-.7 2.2-.4.5.4 1.2.2 1.6-.4.4-.6 1.1-.8 1.6-.5.5.4.9.2.9-.4 0-.5-.4-1.3-1-1.6-.5-.3-1-.2-1 .3zM8 396.9c-5.4 2.9-7.5 6.4-7.5 12.6.1 6.3 2.3 10 7.6 12.7 12.8 6.6 26.6-8.4 18.6-20.3-4.3-6.4-12.1-8.6-18.7-5zM298 403.2c-27.1 9.7-50.4 17.9-62.2 22-8.1 2.8-8.7 3.2-8.6 5.7.1 1.4.6 3.2 1.2 4 .6.8 1 1.7 1 2-.1.3.3 1.7.9 3.1.6 1.4.9 2.9.8 3.4-.1.4.4 1.4 1 2.2.6.8.8 1.4.4 1.4s-.2.7.5 1.5.9 1.5.5 1.5-.2.7.5 1.5c.6.8.9 1.9.5 2.5-.3.5-.1 1 .5 1s.8.4.5 1c-.3.5-.1 1 .5 1s.9.4.5.9c-.3.5-.1 1.3.5 1.6 1 .6.8 5.4-.4 7.3-.3.5.1.9.9.9s1.2-.4.9-.8c-.2-.4 0-1 .5-1.3.5-.4.8.2.7 1.1-.2 1 .2 2.2.8 2.6.6.5.1.5-1.1.2-2.6-.7-2.8-.3-1.2 2.6.6 1.1 1.2 3 1.4 4.1.3 1.2.8 2.4 1.3 2.7.4.3.8 1.5.7 2.6 0 1.2 1.1 2.5 2.8 3.3 1.5.7 2.8 2 2.9 2.8 0 .7.1 2 .2 2.6.1.7.7 1.9 1.4 2.6.7.8.9 1.8.6 2.4-.4.6 0 1.5.7 2 1 .7.7.7-.8.3-2.3-.6-3.2.8-1.3 2 .6.4.8 1 .5 1.5-.3.5 0 1.2.6 1.5.5.4.8 1.3.5 2-.3.8.1 1.9.9 2.5.8.6 1.1 1.8.8 2.6-.3.8 0 1.4.7 1.4.6 0 .8.4.5 1-.3.5-.2 1 .4 1 .5 0 .8.9.6 1.9-.2 1.1.3 2.5 1.1 3.1.7.7 1.1 1.6.8 2.1-.3.5-.1.9.5.9.5 0 .9-.9.8-1.9 0-1.1-.5-1.7-.9-1.5-.5.3-.8.2-.7-.3.1-.4 0-1-.1-1.3-.3-.9-1.1-4.5-1.2-5.7-.1-.7-.6-.9-1.1-.6-.6.4-.7.1-.2-.7.4-.7.2-1.5-.5-2-.8-.5-.7-.9.5-1.3.9-.4 1.3-.3 1 .2-.3.5-.1 1.2.4 1.6.5.3.9 1.3.9 2.3-.1 2.3.5 4.6 1.5 5.3.4.3.9 1.6 1.2 2.8.2 1.3.8 2.8 1.3 3.5.4.6.8 1.8.7 2.6 0 .8.2 1.7.6 2 .4.3.9 1.4 1.1 2.5.1 1.1.7 2.3 1.3 2.7.6.5.5 1.2-.4 2-1.1 1.1-1.3 1.1-.6-.1.5-.9.4-1.2-.3-.7-.7.4-1-.1-.7-1.4.3-1.3 0-1.8-.7-1.4-.7.4-.8.2-.4-.5.4-.6.2-1.8-.4-2.6-.7-.8-.9-1.5-.5-1.5s.2-.6-.4-1.3c-.6-.8-.8-1.7-.4-2.1.4-.4-.1-.4-1.1 0-1.4.5-1.5.9-.4 1.5.7.5.9.9.4.9s-.3.6.3 1.3c.6.8.8 1.7.4 2-.3.4.2 1.6 1.2 2.7s1.5 2 1 2c-.4 0-.2.6.4 1.3.6.8.8 1.7.4 2-.3.4.2.9 1.1 1.3 1.4.5 1.4.9.4 2.2-1.1 1.3-1.1 1.4.1.7 1.1-.6 1.3-.4.8.8-.7 1.8 1.1 3.5 2.2 2.1.6-.9 1.4-1.1 5.5-2 1.1-.2 2.4-.8 2.9-1.3s1.5-.7 2.2-.5c1.3.5 3-2.4 2-3.4-.3-.3-.5 0-.5.7s-.4 1-.9.6c-.5-.3-1.2-.1-1.6.4-.3.6-1.3.8-2.3.5-1.5-.5-1.5-.4-.2.6s1.3 1.1-.2.6c-1-.3-2-.1-2.3.5-.4.5-1.1.7-1.6.4-.5-.4-.9-.1-.9.4 0 .8-.7.7-1.9-.1-1.1-.7-1.8-1.5-1.5-1.9.2-.4-.3-1.2-1.2-1.7-1.5-.8-1.5-1 0-1.5 1-.4 1.5-.3 1.2.1-.2.4.2 1.6 1 2.6 1.1 1.6 1.6 1.7 2.9.6.8-.7 1.5-.9 1.5-.5s.6.2 1.4-.4c.8-.7 2.5-1.4 3.7-1.7 3.3-.7 4-.9 7.2-2.3 1.6-.6 3.3-.9 3.8-.5.5.3 1.2-.2 1.5-1.1.4-.9 1.3-1.4 2-1.1.7.3 1.6.1 2-.5.3-.6 1.2-.8 2-.5.8.3 1.4.1 1.4-.4s.7-.7 1.5-.4c.8.4 1.5.1 1.5-.7 0-.7.3-.9.6-.6 1.4 1.3-1.8 3.5-4.4 3.1-2.1-.3-2.4-.2-1.2.6s.9.9-1.3.6c-1.8-.3-2.5-.1-2.1.6.5.7.2.8-.6.3s-1.1-.4-.6.3c.7 1.1 3.7.9 5.9-.5.6-.4 1.5-.8 2-.9.4-.1.9-.3 1.2-.4.3-.1 1-.4 1.5-.5.6-.1 1.5-.3 2-.4.6 0 1-.9 1-1.9 0-1.4-.2-1.5-1-.2s-1 1.2-1-.4c0-1.2.5-1.6 1.5-1.3.8.4 1.7.2 2-.4.4-.5 1.1-.7 1.6-.4.5.4.9.1.9-.6s.3-.9.7-.6c.3.4 1.2.2 1.8-.3.9-.8 1.4-.6 1.8.4.4 1 .1 1.3-.9.9-.7-.3-1.4-.1-1.4.5 0 .5-1 .9-2.2.8-1.1 0-2.3.6-2.5 1.4-.3 1-.2 1.1.4.4.4-.6 1.6-1 2.5-.8 1 .1 2-.2 2.3-.6.3-.5 1.2-.7 2-.3.8.3 1.5 0 1.5-.7 0-.6.4-.9.9-.6.5.3 1.4-.1 2.1-.8.6-.8 2-1.3 3-1.1 2.1.4 3.6-1 2.1-1.9-.5-.4-1.2-.2-1.6.3-.3.5-1.4.8-2.5.6-1.3-.3-1.8 0-1.4.7.5.7.2.8-.6.3s-1.1-.4-.7.2c.3.5 0 1-.8 1-1.9 0-1.9-1.3 0-2.1.8-.3 1.6-.5 1.8-.5.1 0 1.4-.4 2.9-1 2.1-.8 3.1-.7 4.3.5.8.9 1.5 1.1 1.5.5 0-.6.5-1 1.1-.8.6.1 1.4-.5 1.6-1.3.4-1.3.3-1.3-.6 0-1 1.3-1.1 1.3-1.1 0 0-1.2-.2-1.2-.9-.1-.6.9-1.1 1-1.5.2-.4-.6-.2-1.2.3-1.2 1.4-.2 2.9-.6 3.6-.9.3-.1 1-.4 1.5-.5.6-.1 1.2-.4 1.5-.5.3-.1.8-.3 1.3-.4.4-.1 1.6-.6 2.7-1.2s2.7-1 3.5-.9c.8 0 1.7-.3 2-.7.3-.4 1.5-.9 2.5-1.1 1.1-.2 2.8-.7 3.7-1.1.9-.4 2.2-.9 3-1 .7-.2 2.9-.9 4.8-1.7 1.9-.7 3.8-1.2 4.3-1.1.4.1.7-.3.7-.8 0-.6.9-1 2-1s2.3-.6 2.6-1.3c.2-.7-2.1-8.4-5.2-17.2-3-8.8-7.3-21.2-9.5-27.5-2.2-6.3-4.8-13.8-5.9-16.5-1.6-4.1-9.4-26.2-15.7-44.3-.8-2.3-2-4.2-2.6-4.1-.7 0-11.3 3.7-23.7 8.1zm-56.9 69.2c.1.6.1 1.4 0 1.8 0 .5.4.8 1.1.8.6 0 .8.3.5.7-.4.3 0 1.7.8 2.9 1.1 1.7 1.2 2.5.3 3-.8.5-.6 1 .8 1.6 1.8.8 1.8.8-.1.5-1.3-.1-2-1-2-2.3 0-1.2-.5-2.7-1.1-3.5-.6-.8-1-2.2-.9-3.2.2-.9 0-1.7-.5-1.7-.4 0-1-.7-1.3-1.4-.4-1-.1-1.3.9-.9.7.3 1.5 1 1.5 1.7zm9.9 27.7c0 .5 0 1.2-.1 1.5 0 .4.4 1 1.1 1.4.7.5.6 1.1-.6 2.1-1.3 1-1.6 1-1 .1.4-.7.2-1.9-.4-2.7-.7-.8-.9-1.5-.5-1.5s.2-.7-.5-1.5c-1.1-1.3-1-1.4.4-.9.9.3 1.6 1 1.6 1.5zM336 398c-1.2.7-1.2 1-.1 1 .7 0 1.1.6.8 1.5-.4.8-.2 1.7.4 2 .5.4.7 1 .4 1.5-.3.4.2 1.3 1 2 .7.6 1.1 1.8.8 2.6-.3.8 0 1.4.6 1.4s1 .3 1 .7c-.1.5 0 1 .1 1.3.3 1 1.1 4.5 1.2 5.8.1.8.5.9 1.1.3.5-.5 1.5-.7 2.2-.5.7.3 1.5-.5 1.8-1.8.5-2 .5-2.1-.7-.6-1.1 1.5-1.3 1.5-2.6-.5-.8-1.2-1.5-2.5-1.6-3-.1-.4-.3-.9-.4-1.2-.1-.3-.4-1-.5-1.5-.1-.6-.4-1.2-.5-1.5-.1-.3-.4-1-.5-1.5-.1-.6-.4-1.2-.5-1.5-.1-.3-.3-.8-.4-1.3-.1-.4-.7-1.7-1.4-2.8-.6-1.2-.8-2.4-.5-2.8.9-.9 0-.7-1.7.4zm7.8 18.5c-.3.3-.9-.2-1.2-1.2-.6-1.4-.5-1.5.5-.6.7.7 1 1.5.7 1.8zM817.7 412.2c-18.4 8.3-19.1 33.7-1.2 43.1 5.3 2.8 15.4 2.9 20.9.2 9-4.4 14.3-14 13.3-24-.6-6.1-2.3-9.7-6.5-14.2-6.7-7-17.6-9.1-26.5-5.1zM651 419.4c0 .2.7.7 1.6 1 .8.3 1.2.2.9-.4-.6-1-2.5-1.4-2.5-.6zM630 427.5c-.9 1-.9 1.5-.1 1.5.6 0 1.1-.5 1.1-1.1 0-.5.5-.7 1-.4.6.3 1 .1 1-.4 0-1.6-1.6-1.3-3 .4zM701.7 427.7c-.2.5-.2 1.6.2 2.5.4 1.3 1 1.5 2.1.8s1.1-1 .2-1c-.7 0-1.1-.4-.7-.9.3-.5.1-1.2-.4-1.5-.5-.4-1.2-.3-1.4.1zM615.5 431.9c-.3.6-1 .9-1.4.6-.5-.2-1.6.2-2.7.9-1 .8-2.4 1.2-3 .9-1.5-.6-2.8 1.3-1.4 2.2.5.3 2.1-.2 3.5-1.1 1.4-.9 2.5-1.3 2.5-.9s.6.3 1.3-.3c.6-.6 1.5-1.1 2-1.1.8-.1 1.1-1.1.4-1.7-.3-.3-.8 0-1.2.5zM348.4 433.1c-.3.6-.2 1.5.4 2.1.6.6.8 1.7.5 2.4-.3.8 0 1.4.6 1.4.7 0 1.1.6.9 1.2-.2.7.2 1.3.7 1.3.5 0 1-.6 1.1-1.3.1-.6-.2-1.2-.7-1.2-.6 0-.8-.4-.4-.9.3-.5.1-1.2-.5-1.6-.6-.4-.7-1.1-.4-1.7.5-.7.2-.8-.6-.3-1 .6-1.2.4-.7-.8.7-1.9.2-2.3-.9-.6z"/><path d="M225.3 435.1c-.1 1 .3 1.9.8 1.9.6 0 .8.4.4.9-.3.5.2 1.6 1 2.4 1.1 1.2 1.2 1.7.2 2-.9.4-.9.6 0 .6.7.1 1 .8.6 1.8-.5 1.5-.3 1.4 1-.2 1.4-1.8 1.4-2.2 0-3.8-.9-.9-1.3-1.7-.8-1.7.4 0 .2-.6-.4-1.3-.6-.8-.9-1.6-.6-1.9.3-.3 0-1-.8-1.6-1-.8-1.3-.6-1.4.9zM229.7 446.4c-.4 1-.1 1.3.8.9.8-.3 1.2-.9.9-1.4-.7-1.2-1.1-1.1-1.7.5zM575 446.5c-.7.9-.8 1.5-.2 1.5.5 0 1.2-.7 1.6-1.5.3-.8.4-1.5.2-1.5s-.9.7-1.6 1.5zM205.5 451.2c-6 2.2-21.8 7.8-35 12.5s-26.6 9.4-29.7 10.5l-5.6 2 1.3 4.4c.7 2.4 1.1 4.4.7 4.4-.3 0 .3.9 1.4 2.1 1 1.2 1.8 2.3 1.7 2.5-.2.2-.3.5-.2.6.4 1.5.9 3.7 1.1 5.3.2 1.1.7 2.3 1.1 2.6.4.3.9 1.6 1 2.7.1 1.2.5 2.2 1 2.2.4 0 .5.5.1 1.1-.4.8-.9.7-1.5-.2-.4-.7-.5-1.7-.3-2.1.3-.4 0-.8-.5-.8-.6 0-1-.5-.8-1.1.1-.6-.4-1.4-1-1.6-1.5-.6-1.7 1.3-.3 2.2.6.3 1 1.5 1 2.6 0 1 .5 1.9 1.1 1.9.5 0 .8.4.4.9-.3.5-.1 1.2.4 1.6.6.3.8 1.2.4 2-.3.8.1 1.5.8 1.5.7 0 .9.3.6.7-.7.7 3.3 3.9 4.5 3.6 1.1-.4 4.8 6.2 5 9 .1 1.4.5 2.4.8 2.2.9-.5.6-3.7-.4-5.4-.5-.7-.3-1.8.3-2.4.6-.6 1.1-.7 1.2-.2.5 4.8.3 8-.7 8.9-1.3 1.3-.9 4.7 1 9.7.9 2.1 1.1 4.1.6 4.9-.5.8-.6 1.8-.4 2.2.3.4-.1.8-.8.8-.9 0-.9.3.2 1 .8.5 1.1 1 .6 1-.5 0-.3.7.4 1.5s.9 1.5.5 1.5-.2.7.5 1.5.9 1.5.6 1.5c-.4 0-.1 1 .6 2.2 1.2 2.3 1.8 4.2 2 6.4.1.9 3.3 1.2 3.3.4 0-.1.9-.3 1.9-.5 1-.2 2.2-.7 2.5-1.2.3-.5 1.3-.9 2.1-.9 4.4-.3 7.8-1.7 7.3-3.1-.5-1.2-.7-1.2-1.4-.2-.4.8-1.1 1-1.6.6-.9-.9 1.7-2.8 2.9-2.1.4.3.8 0 .8-.6s.4-.9.9-.5c.5.3 1.2.1 1.6-.4.3-.6 1.2-.8 2-.4.8.3 1.5 0 1.5-.7s.7-1 1.5-.6c.8.3 1.5.1 1.5-.5s.6-.9 1.4-.6c.8.3 2 0 2.6-.8.6-.7 2-1.2 3.1-1 1 .2 1.9 0 1.9-.5 0-.4.7-1.1 1.6-1.4 1.9-.7 5.1.8 3.6 1.8-.6.3-1.4.1-1.7-.4-.5-.8-1.2-.7-2.3.4-1 .8-2.1 1.6-2.7 1.7-3.5.8-4.5 1.2-4.5 1.9 0 .5.9.6 2 .3s2-.9 2-1.4c0-.4.9-.6 2-.4 1.1.2 2.2-.1 2.5-.6.4-.5 1-.7 1.5-.4.4.3 1.3-.2 2-1 .6-.7 1.8-1.1 2.6-.8.9.3 1.4-.1 1.4-1.3 0-1.1-.3-1.5-.8-.9-.4.6-1.2 1.1-1.9 1-1.6 0-2.6-1.2-1-1.2 2.2-.1 4.2-.8 5-1.8.5-.6.7-.4.4.5-.3 1 .2 1.6 1.4 1.7 1 .1 1.9-.3 1.9-.8 0-.6-.4-.7-1-.4-.5.3-1 .1-1-.4 0-.6.7-1.1 1.6-1.1.8 0 1.3-.4 1-.9-.4-.5.2-.8 1.1-.6 1 .1 2.4-.3 3.2-.9.8-.6 2.1-1.1 3-1.1.9 0 2.2-.4 2.9-.8.6-.5 1.2-.5 1.2 0 0 .4.5.1 1.1-.7.9-1.3 1-1.3.6 0-.2.8-1 1.4-1.6 1.2-.7-.1-1 .2-.6.7.3.6-.3.8-1.5.6-2.1-.4-3.6 1-2.1 1.9.5.4 1.2.2 1.6-.4.4-.6 1-.8 1.5-.5.5.3 1.1.1 1.5-.5.4-.6 1.1-.7 1.7-.4.7.5.8.2.3-.6-.6-1-.3-1.2 1.3-.8 1.2.4 2.6 0 3.3-.8.6-.8 1.4-1.2 1.8-1 .3.2 1.7-.1 3.1-.7 2.9-1.2 5-1.8 6.7-1.9.7-.1 1-.5.7-.9-.2-.4-1.3-.7-2.4-.6-1 .1-1.7.4-1.4.8.6 1-2.4.5-3.3-.6-.4-.4-.3-.5.4-.1.6.3 1.4.2 1.8-.4.3-.5 1.5-1 2.6-1 1 0 1.9-.4 1.9-1 0-.5.3-.9.8-.9 3 .5 2.8-.9-1.9-14.4-15.3-43.4-23.9-68-23.9-68.4 0-.5-1.3-.2-12.5 3.9zm-59.9 54.7c-.8 1.2 2.7 4.9 4.2 4.4.6-.3 1.2.3 1.2 1.3 0 .9.3 1.4.7 1.1 1-1.1 3.4 3 2.7 4.7-.3.9-1 1.3-1.5 1-.5-.3-.7-.9-.4-1.4.4-.7-1.9-2.2-3.8-2.4-1.5-.2-4.5-4.9-4-6.3.3-.7-.1-1.3-.8-1.3-1.1 0-1.1-.3.1-1 1.9-1.2 2.3-1.2 1.6-.1zm91.4 29.8c0 .3-.7.3-1.5-.1-.8-.3-1.5-.1-1.5.5s-.4.8-.9.5c-.5-.3-1.4.1-2.1.9-1.2 1.5-4.4.9-3.4-.7.3-.5 1.2-.7 2-.4.8.3 1.4.1 1.4-.4s.8-1 1.8-1.2c1.8-.5 4.2.1 4.2.9zm-77.9 8.3c.2 1.3.6 2.9.9 3.5.1.3.3.8.5 1.2.1.5.4 1.5.8 2.3.3.8.7 2.4.9 3.5.4 2.8 2.5 4.8 4 3.8.7-.4 1.8-.8 2.4-.9.6-.1 2.1-.5 3.2-.8 1.2-.4 2.3-.2 2.8.5.4.8.3.9-.4.5s-1.2-.3-1.2.3c0 .5-.8.8-1.7.6-1-.1-2.6.4-3.5 1.3-1 .8-1.8 1.2-1.8.7 0-.4-.6-.2-1.4.4-1.2 1-1.7.8-2.6-.8-.6-1.2-.8-2.1-.4-2.1.3 0 .1-.7-.6-1.5s-.9-1.5-.4-1.5.2-.5-.6-1c-1-.6-1.1-1-.2-1 .6 0 1.2-.5 1.2-1 0-.6-.5-.9-1.2-.8-.7.2-1.3-.3-1.4-1-.1-.6-.3-1.3-.4-1.5-.7-.7-.6-5.7.2-5.7.4 0 .9.4.9 1z"/><path d="M146.4 511c.9 1.4 2 2.5 2.4 2.5.4.1 1.8.7 3.2 1.4l2.5 1.4-2.5-2.4c-1.4-1.3-2.7-2.1-2.8-1.6-.2.4-1.3-.3-2.4-1.5l-2-2.3 1.6 2.5zM162.6 559.3c.3 1 .9 1.5 1.2 1.2.3-.3 0-1.1-.7-1.8-1-.9-1.1-.8-.5.6zM230.6 448.9c-.4.5.1 1.6.9 2.4 1.1 1.2 1.2 1.7.2 2.1-.9.5-.9.7.1 1.2.6.3 1.2 1.4 1.2 2.5 0 1 .4 1.9.9 1.9.4 0 .8.8.8 1.7 0 3.3.3 4.3 1.1 4.3 1.4 0 .7-4.2-1.1-7.8-1-1.8-1.5-3.7-1.2-4.2.3-.5.1-1.1-.5-1.5-.6-.4-.8-1-.5-1.5.3-.5.1-1.1-.4-1.4-.5-.4-1.2-.2-1.5.3zM718.4 449.8c.4.3 1.4.7 2.2.8.9.1 1.3 0 1-.4-.4-.3-1.4-.7-2.2-.8-.9-.1-1.3 0-1 .4zM75.3 474.1c-2.5.9-5.7 5.4-4.9 6.8.3.5.1 1.1-.6 1.3-1.6.6-1.4 7.8.3 8.9.8.5 1.1.9.6.9-.4 0-.1 1.3.8 3 .8 1.6 1.5 3.2 1.5 3.5 0 .3.2.5.5.5h1.1c.4 0 .1-.7-.6-1.5-.6-.8-.8-2-.4-2.6.5-.8.3-.9-.6-.4-.9.5-1.1.4-.6-.3.4-.7.3-1.2-.3-1.2-.5 0-.8-.9-.6-2 .3-1.3 0-1.8-.7-1.4-.7.5-.9.2-.5-.8.3-.9.1-2-.3-2.4-.5-.5-.5-1.5.1-2.4.9-1.3 1-1.3.6.1-.3.9-.1 2.1.4 2.6s1.2 2 1.4 3.3c.2 1.3.9 2.6 1.5 3 .6.4.8 1.5.4 2.5-.6 1.4-.4 1.6.7 1 .8-.4 1.1-.5.7 0-.4.4-.2 1.5.5 2.3.6.9.7 1.3.2 1-1.6-1-3.5 2.6-2.4 4.3.7 1.2.9 1.2 1-.1.1-.8.1-1.8 0-2.3 0-.4.3-.7.8-.7 1 0 2.7 3.9 2.3 5.2-.1.5.3.8.9.8.6 0 .9.6.6 1.4-.3.7-.1 1.8.5 2.4.6.6.6 1.2-.3 1.7-.8.6-1 .4-.4-.5.5-.8.4-1.1-.3-.6-.7.4-1-.1-.7-1.4.2-1.1 0-1.8-.5-1.5-.5.3-.7-.3-.5-1.4.3-1.4-.1-1.8-1.2-1.4-1.2.5-1.2.7-.1 1.4.7.5.9.9.4.9s-.3.7.4 1.5.9 1.5.5 1.5-.2.6.5 1.4c.6.8 1.9 1.2 2.7.9 1.2-.5 1.5-.2 1 1-.4 1 0 2 1.1 2.6.9.6 1.3 1.1.8 1.1s-.3.6.3 1.4c.9 1 .8 1.5-.3 1.9-1 .4-1.3.1-.9-.9.3-.7 0-1.4-.7-1.4-.6 0-.9-.4-.5-.9.3-.5.1-1.2-.5-1.6-.6-.4-.8-1.1-.5-1.6.3-.5-.2-.6-1.1-.2-1.6.6-1.5.7.2 2 1 .7 1.4 1.3.9 1.3-.5 0-.4.5.2 1.1.6.6.9 1.8.6 2.5-.3.8 0 1.4.6 1.4s1 .5.9 1.1c-.2.6.4 1.4 1.2 1.6.9.3 1.1.1.5-.4-1.5-1.2-1.6-3 0-3 .7 0 1.1.6.8 1.4-.3.7 0 1.3.7 1.3s1 .6.7 1.4c-.3.7.2 2.4 1.1 3.7.9 1.3 1.6 2.6 1.6 2.9-.1.3.2 1.5.7 2.8.5 1.3.9 2.7.9 3.2 0 1.5 6.1 6 7.2 5.4.7-.4.8-.2.4.4-.4.7-.1 1.2.9 1.2.9 0 1.4.4 1 .9-.7 1.3 3.3.5 4.9-.9.7-.5 1.5-.8 1.8-.5.2.3.5-.2.5-1 0-1-.4-1.2-1-.6-.5.5-1.7.7-2.6.4-1.4-.4-1.4-.3-.1.6 1.2.9 1.1 1.1-.7.8-1.2-.2-2.6-.7-3-1.2-.5-.4-.3-.5.4-.1.6.3 1.5.1 1.8-.5.4-.5 1.3-.8 2.1-.5.8.3 1.4.1 1.4-.5s.6-.9 1.4-.6c.8.3 1.7.1 2-.6.3-.7.3-.2 0 1-.6 2.6.4 2.9 3.1 1 1.4-1.1 1.5-1.6.5-2.2-.9-.5-1.1-.4-.6.3.4.7.2 1.2-.4 1.2-.7 0-1-.6-.7-1.3.2-.6 1.1-1.1 2.1-.9.9.2 1.6-.2 1.6-.9 0-.6.6-.9 1.4-.6.8.3 2-.1 2.7-.9.6-.8 1.4-1.2 1.7-.9.3.3 1.1 0 1.9-.7.7-.6 1.6-.8 1.9-.5.3.3 1.7-.1 3.2-.9 2.3-1.1 3-1.1 4.9.1 1.4.9 2.4 1.1 2.8.5.4-.6 1.1-.7 1.7-.4.6.4.5-.3-.2-1.6-.7-1.2-.7-2-.2-1.6.6.3 1.3 0 1.5-.6.4-1 .6-1 .6-.1.1.7.6 1.3 1.2 1.3.5 0 .8-.4.4-.9-.9-1.5 1.3-2.3 3.2-1.1 1.6.9 1.5 1-.5.5-1.6-.5-2.2-.3-2 .7.2.7-.5 1.2-1.6 1.1-1.1-.1-1.5.2-.9.8 1.4 1.4 7.3-1.9 6.6-3.6-.3-.8-.1-1.5.5-1.5.5 0 1.7-1.6 2.6-3.5 1.5-3 1.5-3.9.4-6.2-2.5-5.3-4.7-5.2-26 1.9l-19.5 6.6-2.1-5.2c-1.1-2.8-5.1-13.2-8.8-23.1-3.6-9.9-7.3-19.4-8.1-21.2-1.6-3.5-5.7-5.4-9-4.2zm60.2 60.1c.4.3.2.9-.3 1.2-.5.3-1.5-.1-2.1-.8-1-1.1-.9-1.4.3-1.2.9.1 1.8.5 2.1.8zM483.5 477.8c-.4.4-1.1.7-1.6.7-1.3 0-1.3 1.9 0 2.3.6.2 1.1-.1 1.1-.7 0-.5.9-.8 2-.6 1.1.2 2 0 2-.5 0-1.1-2.6-2-3.5-1.2zM133 481.8c0 1.4 2.9 3.6 3.7 2.8.3-.3.1-.6-.5-.6-.7 0-1.1-.5-.9-1.1.1-.6-.4-1.4-1-1.6-.7-.3-1.3 0-1.3.5zM568.5 484.7c-5.9 1.5-10.5 7.8-10.5 14.4 0 12.1 14.9 18.7 23.8 10.5 3.2-2.9 4.2-4.9 4.8-9.9 1.1-8.9-9.1-17.3-18.1-15zM135 486.9c0 .6.5 1.3 1 1.6.6.4.8 1 .5 1.5-.3.5-.1 1.1.5 1.5.6.4.8 1.1.5 1.6-.4.5-.1.9.5.9s.9.4.5.9c-.3.5 0 1.3.6 1.6 1.7 1.1 2.3-.3.9-2-.7-.9-1-1.8-.7-2.2.4-.3.2-1.2-.4-2-.6-.7-.8-1.3-.4-1.3s.2-.7-.5-1.5c-1.4-1.7-3-2-3-.6zM243 487.1c0 .5.4.8.8.5.5-.3.9.8 1 2.5.1 3.4 1.9 6.2 3.4 5.3.5-.3.3-1.3-.6-2.3-.9-1-1.3-2-1-2.3.8-.8-1.4-4.8-2.6-4.8-.6 0-1 .5-1 1.1zM428.8 497.6c-.4.3-1.2.6-2 .7-1.7.3-2.3 2-.9 2.5.6.2 1.1-.2 1.1-.8 0-.7.6-1 1.3-.7.8.3 1.4-.1 1.4-.9 0-1.6-.1-1.6-.9-.8zM356.5 508c-.4.6-1.1.8-1.6.5-.5-.4-1.2 0-1.5.8-.3.8-1.3 1.4-2.2 1.2-.9-.1-2.3.2-2.9.8-.7.5-1.3.6-1.3.2 0-.4-.7-.2-1.5.5s-1.5.9-1.5.5-.6-.2-1.3.4c-.8.6-1.8.7-2.2.3-.5-.4-.4-.1 0 .7.6 1.1.4 1.3-.8.8-.9-.3-1.9-.2-2.2.4-.4.5-1.1.7-1.6.4-.5-.4-.9 0-.9.7 0 .9-.3.9-1-.2s-1-1.1-1-.2c0 .7-.4 1.1-.9.7-.5-.3-1.2-.1-1.6.5-.4.6-1 .8-1.5.5-.5-.3-1.1-.1-1.5.5-.4.6-1.1.8-1.6.5-.5-.3-.6.1-.2 1 .4 1.2.8 1.3 1.3.5.4-.6 1.1-1.1 1.6-1 .5 0 1.8-.2 2.9-.6 3.5-1.1 4.5-1.4 5.8-1.7 3.5-.9 5.7-1.9 5.7-2.7 0-.4.8-.7 1.8-.5.9.1 2.3-.2 3-.8.6-.5 1.2-.6 1.2-.2 0 .4.7.2 1.5-.5s1.5-.9 1.5-.6c0 .4 1 .1 2.3-.6 1.2-.7 2.5-1.2 2.8-1.1.3.1.6-.5.6-1.3 0-1.7-.4-1.8-1.2-.4zM420 514.6c-3.6 1.3-9 3.3-12 4.3-3 1.1-11.3 4-18.5 6.6-16.1 5.7-17.7 5.5-21.2-2.1-2.2-4.8-2.6-5.2-4.6-4.3-1.2.5-9.8 3.5-19.2 6.8-15.4 5.3-17 6-17 8.1 0 1.3-.7 2.6-1.4 2.8-1 .3-.7.8.9 1.7 1.9 1 2 1.3.6 1.8-1.1.5-1.5.3-1-.5.4-.7.3-.8-.4-.4-1.3.8-1.7 3.7-.4 3.5 1.9-.3 2.3.2 1.2 1.7-.8.8-.9 1.4-.4 1.3 2.1-.4 2.8.2 1.4 1.1-1.1.7-1.1 1-.2 1 .7 0 1 .5.7 1-.4.6-.3 1 .2.9 2-.4 2.7.2 1.3 1.2-1.3.9-1.2 1 .3.5.9-.3 1.7 0 1.7.6s.3.8.6.5c.4-.4.1-1.3-.6-2.2-.8-.9-.8-1.5-.2-1.5.6 0 1.3.8 1.6 1.7.4 1 2 3.3 3.6 5.2 1.7 1.8 3 3.8 3 4.3s.4.6 1 .3c.6-.4.7.1.3 1.1-.4 1.1-.2 1.5.4 1.1 1.1-.7 6.2 2.7 7.6 5 .5.8 1.2 1.1 1.7.8.5-.3 1.1-.1 1.5.5.3.5 1.5 1 2.6 1s2.2.6 2.5 1.4c.3.8 1.4 1.3 2.5 1.1 1-.2 2.1.1 2.4.6.4.5 1 .7 1.5.4 1.3-.8 2 .9 1 2.5-.7 1.1-1.2 1.1-2.3.2-.7-.7-1.8-.8-2.2-.4-.5.4-.5.2-.1-.5.4-.8 0-1.1-1.4-.8-1.3.3-1.8 0-1.4-.7.4-.7.3-.8-.4-.4-.8.5-1 .2-.6-.9.5-1.3.1-1.5-2-1.1-1.4.2-2.8 0-3.2-.5-.3-.5-1-.6-1.6-.3-.7.4-.8.2-.4-.4.4-.8.2-1-.8-.6-1.5.6-4.3-3.2-3.7-5.1.1-.5-.7-.1-1.8.9-2.2 2-3 .9-.8-1.3.6-.7.8-1.2.2-1.1-2 .4-3.6 0-3.1-.8.2-.4 0-1.4-.6-2.2-.8-1.3-.9-1.2-.5.1.3.9 0 2.2-.6 2.9-.8.8-.8 1.1-.1.7.6-.4 1.6.5 2.3 2 .6 1.4 1.5 2.3 1.8 1.9.3-.3 1.2.2 1.9 1.2.7.9 1.7 1.8 2.3 1.8.6.1 1.6.2 2.2.3.5 0 .7.7.3 1.3-.4.7-.3 1 .1.5.5-.4 1.7 0 2.7 1 1.7 1.5 1.9 1.5 3.2-.2 1.3-1.8 1.4-1.8 1.2.5 0 1.5.4 2.5 1.3 2.5 1.9 0 2.3 3.1.6 4.5-.8.6-1.1 1.9-.8 2.7.5 1.2.3 1.4-.8.8-.8-.4-1.1-.5-.7 0 .4.4.3 1.4-.3 2.2-.6.7-.8 1.3-.4 1.3.5 0 0 .9-1 2s-1.5 2-1 2c.4 0 .2.7-.5 1.5s-.9 1.5-.4 1.5c.4 0-.3 1.1-1.6 2.5s-2 2.5-1.5 2.5.4.5-.2 1.1c-.6.6-.9 1.8-.6 2.7.5 1.1.3 1.3-.7.7-.8-.5-1.1-.4-.7.2.4.6 0 1.6-.7 2.2-.8.7-1.3 2.3-1 3.7.3 1.6 0 2.3-.8 2.2-.7-.2-1.2.3-1.1.9.2.7-.2 1.3-.8 1.3-.5 0-.7.4-.4 1 .3.5.1 1-.5 1-.7 0-.9.8-.5 2.2.6 1.6.4 2-.8 1.5-1.2-.4-1.5-.1-1.2 1.4.2 1.1-.2 2.2-1.1 2.6-.9.3-1.2 1.2-.8 2.5.4 1.4.2 1.8-.5 1.4-1-.6-1.3 0-1 2 0 .4-.5 1.1-1.3 1.5-1 .7-1 .9 0 .9.7 0 1 .5.7 1-.4.6-1.2.7-1.8.4-.7-.4-.9-.4-.5.1.4.4.3 1.4-.3 2.2-.6.7-.8 1.3-.5 1.3.4 0-.2.9-1.3 2.1-1.1 1.2-1.7 2.7-1.4 3.5.3.8 0 1.4-.7 1.4s-.9.8-.5 2.1c.5 1.4.3 1.9-.3 1.5-.6-.3-1.4-.1-1.8.5-.5.8-.3.9.6.4 1-.6 1.2-.4.7.9-.4 1-.7 2.1-.7 2.4 0 .4-.5 0-1.1-.8-.9-1.3-1-1.3-.6.2.3.9-.1 1.9-.9 2.2-.9.3-1.3 1-.9 1.5.3.5.1 1.2-.4 1.6-.6.3-.7 1.3-.4 2.2.5 1.2.3 1.4-.7.8-.9-.5-1.1-.4-.6.3.4.7.1 1.2-.6 1.2-.9 0-.9.3.2 1 1.3.8 1.2 1-.4 1-1.2 0-1.6.5-1.3 1.4.3.8-.1 2-.9 2.7-.8.6-1.2 1.4-1 1.7.3.2-.2 1.1-1 1.9-.8.8-1.2 1.9-.9 2.4.4.5.1.9-.6.9s-.9.3-.6.7c.4.3-.1 1.5-1 2.5-1.5 1.7-1.5 2-.3 2.8 1.5.9 1.3 1.1-1.2 1.4-.7 0-1.4.7-1.4 1.3-.1.7-.3 1.5-.4 1.8-.1.3-.3.8-.4 1.2-.1.5-.8 1.9-1.6 3.3s-1.5 3-1.6 3.7c-.1.7-1.1 2.5-2.2 4s-1.8 3.8-1.6 5.1c.3 1.6 0 2.1-.8 1.6-.6-.4-.8-.3-.5.3.4.6 0 1.4-.9 1.7-.9.4-1.4.9-1 1.3.3.3-.1 1.5-1.1 2.5-.9 1-1.2 1.8-.7 1.8s.2.5-.6 1c-1.1.7-1.1 1-.2 1 .7 0 1 .5.7 1-.4.6-1.2.7-1.8.4-.7-.4-.9-.4-.5.1.4.4.1 1.7-.7 2.8-1.1 1.5-1.2 2.4-.3 3.4.8 1 .7 1.3-.5 1.3-2 0-2.8 2.4-1.4 4 .9 1 .9 1.1-.1.5-.8-.4-1.9 0-2.7 1.1-1.4 2-1 3.8.7 2.8.6-.4.9-.1.6.7-.3.8-1.2 1.3-2 1.1-1.7-.3-3.4 2.8-2.1 3.7.4.3.9 1.5 1.1 2.6.2 1.9.2 1.9-1.2.2-.9-1.2-1.6-1.4-2.1-.8-.3.6 0 1.1.7 1.1.9 0 .9.3.2.8-1.1.7-3.4 4.5-3.4 5.6 0 .2.9.4 2 .3 1.1-.1 2-.6 2-1.2 0-.5.4-.4.9.3.7 1.1.9 1 1.5-.3.3-.9 1-1.3 1.6-1 .5.3 1 .1 1-.5 0-.7-.6-1-1.3-.7-.8.3-1.4-.1-1.4-.9 0-1.3 1.1-1.8 3-1.5.4 0 .7-.4.7-1s-.7-.9-1.5-.5c-.8.3-1.4.2-1.4-.2.1-.4 0-.9-.1-1.2-.1-.3-.3-1.4-.5-2.5-.3-1.8-.2-1.7 1.4.4l1.9 2.4 1.2-2.3c1-1.8.9-2.1-.1-1.5-.8.6-1 .4-.5-.4.9-1.4 1.9-.7 2.2 1.4.1.8-.3 1.5-.9 1.5-.5 0-.7.3-.4.6.3.4.1 1.6-.5 2.8-.7 1.1-1.2 2.5-1.3 3.1 0 .5-.8 2.7-1.8 4.9-.9 2.1-1.7 4.3-1.7 4.8 0 1 17.5.6 78-1.7 6.3-.2 20.3-.7 31-1.1 10.7-.3 23.3-.7 28-.9 4.7-.2 17.5-.6 28.5-1s20.2-.8 20.4-1c.3-.3-10.1-20.2-24.4-47-1.8-3.3-5.6-10.5-8.5-16-7-13.3-11.9-22.4-16.7-31.5-2.2-4.1-6.3-11.8-9-17-11-20.8-23.7-44.8-26.9-50.7-3.5-6.4-4-7.8-2.6-6.9.5.3.9-.1.9-.8 0-.8-.6-1.2-1.3-.9-.6.2-1.4 0-1.8-.5-.3-.5 0-.9.7-.9 2.1-.1 4.2-.8 4.8-1.6.3-.5.9-.1 1.2.8.4.9.3 1.3-.2 1-.5-.3-1.3 0-1.6.6-1.1 1.7.3 2.3 2.1.8 1-.8 2.5-1.4 3.4-1.4 2.1 0 5-2.3 5-4 0-1.6 2.7-2.7 3.5-1.4.4.5.1.8-.6.7-.6-.2-1.4.4-1.6 1.2-.4 1.2-.3 1.2.5.2.5-.8 1.3-1.4 1.8-1.3.5 0 .8-.7.8-1.5-.1-.9.1-1.3.4-1 .3.3 1.1-.3 1.9-1.4.7-1 2-1.7 2.7-1.4.8.3 1.9-.1 2.5-.8.6-.7 2.4-2.9 4.1-4.8 8.6-9.7 14.2-24.6 13.9-37-.3-11.2-.2-11.2-7.9-8.4zM329 542c0 .5 0 1.3-.1 1.6 0 .4.4 1 .9 1.3 1.5.9 1.9 2.6.7 2.8-.5.2-1.1-.2-1.1-.7-.1-.6-.3-1.2-.4-1.5-.1-.3-.3-.8-.4-1.3-.1-.4-.5-1.3-.9-2-.5-.7-.4-1.2.2-1.2.6 0 1.1.4 1.1 1zm82 20.4c0 .2-.8 1-1.7 1.7-1.6 1.3-1.7 1.2-.4-.4 1.3-1.6 2.1-2.1 2.1-1.3zm-66 5.6c.6 1.1.8 2 .6 2-.3 0-1-.9-1.6-2-.6-1.1-.8-2-.6-2 .3 0 1 .9 1.6 2zm8.5 4.2c.5-.4.5-.1.1.6-.6 1-1.1 1-2.2.1-.8-.6-1.4-1.4-1.4-1.6 0-.3.6 0 1.3.6.8.6 1.8.7 2.2.3zm42.7 1c-.7.7-2.4 1.3-3.8 1.4-3 .1-1.7-1.6 1.5-1.9 1.1-.1 2.1-.6 2.1-1.1 0-.5.3-.6.7-.3.4.4.1 1.3-.5 1.9zm-35.2 3.3c0-.4.7-.2 1.5.5 2 1.7 1.9 3.1-.2 2.3-1.5-.6-1.6-.4-.6.8 1.4 1.7.1 4.5-1.6 3.5-.6-.4-1.1-.3-1.1.3 0 .5.5 1.1 1.2 1.3.8.3.8.9-.1 2.4-.8 1.1-1.1 1.3-.8.3.3-.9 0-1.6-.6-1.6-.7 0-1.3 1.1-1.3 2.4-.1 1.2.2 2.1.6 1.8.5-.3 0 1.2-1 3.2-1 2.1-1.6 4.1-1.4 4.4.2.4-.3 1-1.2 1.3-.8.3-1.2 1.1-.8 1.8.5.7.1.9-1.4.6-1.5-.4-1.9-.2-1.5.8.3.8.9 1.1 1.4.8.5-.3.9 0 .9.6 0 .7-.7.9-1.6.6-1.3-.5-1.4-.4-.6.7.9 1 .8 1.7 0 2.5-.7.7-.8 1.2-.4 1.2.5 0 .3.7-.4 1.5s-1.6 1.2-2.1.9c-.5-.3-.9 0-.9.5 0 .6.6 1.1 1.3 1.2.9 0 .9.2-.1.6-.6.2-1 .9-.7 1.3.3.5-.5.7-1.7.5-1.9-.3-2-.2-.7.7 1.3.9 1.4 1.6.5 3.4-.6 1.3-1.4 2.4-1.8 2.4-.4 0-.5.7-.2 1.5.4.8.1 1.5-.5 1.5s-1 .3-1 .7c.1.8 0 1.2-.6 3-.2.5-.6 1.8-1 3-.4 1.3-1.2 2.3-1.8 2.3-.6 0-.7.3-.4.7.4.3.2 1.2-.4 2-.6.7-.8 1.3-.4 1.3.5 0 0 .9-1 2s-1.5 2-1.1 2c.4 0 .1 1-.6 2.2-.7 1.3-1.1 2.7-1 3.1.1.5-.2.5-.8.2-.6-.4-1.1-.1-1 .6.3 2.2-1.1 5.9-2.3 5.9-.6 0-.7.3-.4.6.3.4.1 1.6-.5 2.8-.7 1.1-1.1 2.4-1 2.8.1.5-.3.8-.9.8-.5 0-.8.4-.4.9.3.5-.1 1.6-.9 2.4-.8.8-1.2 1.7-.9 2.1.4.3.1.6-.5.6s-.9.7-.6 1.5c.4.8.1 1.5-.7 1.5-.7 0-.9.3-.6.7.4.3.2 1.2-.4 2-.6.7-.8 1.3-.4 1.3s.1.7-.6 1.6c-.7.9-1.4 2.3-1.6 3.2-.1.9-.7 1.8-1.3 2-.5.2-.8.7-.5 1.2.3.5-.2 1.5-1 2.3-.8.9-1.2 2.4-.9 3.4.5 1.5.4 1.5-.5.3-.6-.8-1.1-1.2-1.1-.8 0 .3-.3 1.4-.7 2.4-.5 1.3-.3 1.5.7.9.8-.5.4.6-.9 2.3-1.2 1.8-1.9 3.2-1.5 3.2.3 0 0 .7-.7 1.7-.8.9-1.3 1.8-1.2 1.9.2.3-3.4 8.6-4.4 10.3-.1.2-1.6-.2-3.3-.9-3-1.2-3-1.3-1-2.7 1.4-1 1.9-2.2 1.6-3.9-.3-1.5.1-2.7 1.2-3.4.9-.5 1.3-1 .8-1s-.1-.9.8-1.9c1-1.1 1.5-2.5 1.1-3-.3-.6.1-1.4.9-1.7.9-.3 1.4-1 1.1-1.4-.3-.5-.1-1.1.5-1.5.6-.4.8-1 .5-1.5-.3-.5-.1-1.1.5-1.5.6-.4.7-1.1.4-1.7-.4-.6-.2-.8.3-.5.6.4 1.6 0 2.2-.7.8-1 .9-1.6.1-2.1-.7-.4-.3-1.5 1-3.2 1.1-1.4 1.8-2.9 1.5-3.3-.3-.4.2-1.3 1-2s1.3-1.6 1-2c-.3-.5.5-1.6 1.7-2.4 1.4-1 1.7-1.6.8-1.6-.9 0-.8-.5.6-1.5 1-.8 1.5-1.5 1-1.5s-.3-.7.4-1.5c.6-.8.9-1.9.6-2.4-.4-.5-.2-1.2.4-1.6.6-.4.8-1.1.5-1.6-.4-.5-.2-.9.4-.9 1.3 0 4.4-4.6 4.6-6.9 0-.9.4-2.2.9-2.9.4-.6.5-1.6.2-2.1-.3-.4.3-1.6 1.4-2.6 1.1-1 1.7-2.1 1.5-2.5-.2-.4.4-1.5 1.5-2.5s1.7-2.2 1.3-2.8c-.3-.6-.1-.7.5-.3.7.4 1.2.2 1.2-.3 0-.6-.5-1.1-1.2-1.1-.6 0-.4-.6.7-1.3 1-.8 1.5-1.9 1.1-2.5-.3-.6.4-1.8 1.6-2.6 1.4-1 1.7-1.6.8-1.6-1 0-.9-.3.4-1.3.9-.7 1.6-1.7 1.5-2.2-.2-.6.2-2 .9-3.1.6-1.2.8-2.5.4-2.9-.4-.3 0-.5.8-.3 1 .2 1.5-.5 1.5-2.3 0-1.5.8-3.6 1.8-4.7 1.1-1.2 1.6-2.5 1.3-3.1-.4-.5-.2-1.2.4-1.6.6-.4.8-1 .5-1.4-.2-.5.4-1.6 1.5-2.6s1.7-2.1 1.5-2.6c-.3-.4-.1-1 .5-1.4.6-.4.8-1 .5-1.5-.3-.5.5-1.6 1.7-2.4 1.3-.9 1.7-1.6.9-1.6-1.1 0-1-.5.3-1.9 1-1.1 1.5-2.4 1.2-2.9-.3-.5 0-1.5.8-2.1 1.5-1.3 1.6-2.8.1-5.1-.8-1.3-.7-1.3.8-.1.9.7 1.7 1 1.7.6zm-60 133.6c0 .5.4.8.8.5.4-.2 1.4 0 2.2.5 1.2.8 1.2 1.2.2 1.6-.6.2-1 .9-.7 1.4.4.5-.2.6-1.2.2-1.5-.6-1.6-.4-.5.9.9 1.1 1 1.8.2 2.3-.6.3-.8 1-.5 1.5.3.4-.2 1.3-1 2s-1.2 1.7-.8 2.3c.4.6.1.7-.7.2-1-.6-1.2-.4-.7.8.3 1 .2 1.7-.4 1.7-.6 0-.7.5-.3 1.2.5.7.3.8-.6.3-.9-.5-1-.2-.6 1.3.4 1.1.2 2.3-.4 2.7-.6.3-.7 1.1-.4 1.7.4.7 0 .7-1.3-.1-2.4-1.2-4.4.3-3.6 2.8.4 1.3.3 1.4-.5.1-.8-1-.8-1.8-.1-2.7 1.3-1.5.2-3.6-1.4-2.6-.7.4-.7.1.1-.9.8-.9 2-1.4 2.8-1.1 1.6.6 1.9-1.2.4-2.2-.6-.4-.8-1.1-.4-1.6.3-.5.9-.7 1.4-.4.4.3 1-.2 1.4-1 .3-.8.1-1.7-.5-2-.5-.4 0-2 1.3-3.8 1.3-1.8 2.3-3.9 2.3-4.7 0-1.9 1.4-4 2.6-4 .5 0 .9.5.9 1.1zm-14.4 33.5c.1.9 0 1.3-.3 1-.3-.3-1.5-.1-2.6.5-1.5.9-1.8.8-1.2-.3 2.4-4 3.6-4.4 4.1-1.2z"/><path d="M359.1 581.4c-1 1.1-.9 1.4.1 1.2 1.4-.2 2.3-1.5 1.5-2.2-.2-.2-1 .2-1.6 1zM354.9 590.4c-.1.3-.2.9-.3 1.3-.1.5-.5 1.4-.9 2-.5.7-.5 1.3-.1 1.3s-.3 1.1-1.5 2.4c-1.2 1.3-1.8 2.7-1.3 3 .5.3 1.5-.1 2.2-.9.7-.8.9-1.5.4-1.5s-.3-.4.4-.9c.7-.4 1.4-1.4 1.5-2.2.2-.8.6-1.9 1-2.6.4-.6.3-1.4-.3-1.8-.5-.3-1.1-.4-1.1-.1zM347.9 606.6c-1.9 2.3-1.9 4.2 0 4 .9-.2 1.6-.7 1.6-1.2s.4-1.4.8-2.1c1.2-1.8-.9-2.5-2.4-.7zm1.2.7c-.6.8-.7 1.8-.3 2.2.4.5.1.5-.6.1-1-.6-1-1.1-.1-2.2.6-.8 1.4-1.4 1.6-1.4.3 0 0 .6-.6 1.3zM342.6 617.8c-.3.5.1.9.9.9s1.2-.4.9-.9c-.3-.4-.7-.8-.9-.8-.2 0-.6.4-.9.8zM342.1 621.3c-.6.8-.8 1.6-.5 2 .3.3-.4 1-1.5 1.6-1.1.6-1.8 1.7-1.5 2.5.3.8 0 1.7-.5 2.1-.6.3-.9 1.1-.5 1.7.3.5-.6 2.3-2.2 3.9-1.5 1.6-2.4 2.9-1.9 2.9s-.2 1.2-1.6 2.6c-1.3 1.4-1.8 2.4-1 2.2.7-.2 1.6.3 1.9 1.1.2.8 0 1.1-.6.7-1.2-.7-2.5 1-2.8 3.4-.3 2.9-.9 4.2-3.7 7.2-2 2.2-2.5 3.4-1.7 4.3.8.9.6 1.4-.5 1.8-.8.4-1.2 1.3-.9 2.2.3.8.1 1.5-.6 1.5-.6 0-.9.4-.5.9.3.6-.4 1.5-1.5 2.1-1.1.6-1.8 1.5-1.5 2 .3.4 0 1.4-.7 2.2-.7.7-1.4 2-1.6 2.8-.2.8-1 2.2-1.8 3.1-.9 1-1 1.9-.4 2.5.7.7.2 1.8-1.2 3.4-1.3 1.4-2.4 2.8-2.4 3.2-.1.5-.3 1-.4 1.3-.1.3-.3 1-.4 1.5 0 .6-.8 1.5-1.6 2-1.2.8-1.2 1-.1 1 1.1 0 1 .5-.4 2-2.2 2.4-2.7 4.7-1.4 5.6.5.3.9 1 .9 1.6 0 .6-.9.3-1.9-.6-1.7-1.5-1.9-1.5-1.7-.2.1.8.5 1.8.9 2.2.3.4-.4 1.5-1.6 2.6-1.2 1.1-1.7 1.7-1 1.4.6-.4 1.3 0 1.6.6.5 1.5 1.8.6 2.1-1.4.1-.7 1.2-2.8 2.4-4.6 1.3-1.8 2-3.2 1.6-3.2-.3 0-.1-.7.6-1.5s.9-1.5.5-1.5-.2-.7.5-1.5.9-1.5.4-1.5-.2-.5.6-1c1-.7 1.1-1 .2-1-.9 0-.8-.6.4-2.4.8-1.4 1.5-2.7 1.5-3-.3-1.8 0-2.6.8-2.4.5.2.8 0 .7-.3 0-.4.8-1.6 1.8-2.8 1.1-1.2 1.5-2.1 1.1-2.1-.4 0 0-.9 1-2s1.5-2 1-2c-.4 0-.3-.6.3-1.3.6-.6 1.1-1.5 1.1-2 .1-.4.1-.8.2-1 0-.1.2-1 .4-2s1-2.6 1.7-3.5c.8-1 1.4-2.4 1.3-3.2 0-.8.6-2 1.5-2.7 1-.9 1.1-1.2.3-1.3-.7 0-1.3-.4-1.3-1 0-.5.8-.7 1.8-.4 1.3.4 1.4.3.4-.4-1.1-.7-1.1-1 .3-1.6.9-.3 1.4-1 1.1-1.5-.3-.5.1-1.2 1-1.5.8-.3 1.2-1.1.9-1.7-.4-.5.1-1.9 1-2.9s1.7-2.5 1.9-3.3c.1-.8.8-2.2 1.5-3.1.7-.9 1-1.6.6-1.6s-.2-.7.5-1.5.9-1.5.6-1.5c-.4 0 .2-1.4 1.4-3 1.2-1.7 1.8-3 1.4-3-.3 0-.1-.7.6-1.5s.9-1.5.5-1.5-.2-.7.5-1.5.9-1.5.5-1.5-.2-.7.5-1.5 1-1.5.7-1.5c-.2 0-1 .6-1.6 1.3zm-6.1 15.2c-.7.8-.9 1.5-.5 1.5.5 0 .1.8-.8 1.8-1 1-1.4 2.2-1 2.7.5.4.2.5-.5.1-1.1-.6-1-1.2.4-2.7.9-1 1.4-1.9.9-1.9-.4 0-.2-.7.5-1.5s1.5-1.5 1.7-1.5c.3 0 0 .7-.7 1.5zM321.5 669c-.3.5-1.2 1-1.8 1-.7 0-.6-.4.3-1 1.9-1.2 2.3-1.2 1.5 0zm-1.5 3.5c-.7.8-.9 1.5-.5 1.5.5 0 .1.8-.8 1.8-1 1-1.5 2.1-1.2 2.4.3.3-.1 1.1-.9 1.7-2.7 2.2-2.5-.5.2-3.4 1.5-1.6 2.6-3.1 2.5-3.2-.7-.8-.2-2.3.8-2.3.8 0 .8.5-.1 1.5zm-9.5 20.2c-.2 1-.4 1.9-.5 2-.2.2-.4.7-.5 1.3-.1.5-.4 1.2-.5 1.5-.1.3-.3.9-.4 1.5-.2 1.5-2.1 1.2-2.2-.3 0-.6.9-2.2 2-3.5 1.1-1.2 1.6-2.2 1.2-2.2-.4 0-.4-.5-.1-1 .9-1.5 1.4-1.2 1 .7zM298.9 710.4c-.1.3-.2 1.4-.3 2.4 0 1.1-.7 2.6-1.4 3.5-.9 1-1 1.7-.2 2.2 1.2.7.4 2.5-1.1 2.5-.6 0-.7-.5-.3-1.2.5-.7.3-.8-.6-.3-1 .6-1 1 .2 1.9 1.4 1 1.4 1.3-.1 2.6-.8.8-2 1.4-2.5 1.2-.5-.2-.4.4.3 1.2 1.5 1.8.5 4-1.5 3.2-2.1-.8-1.7.2.6 1.4 1.1.6 2 .7 1.9.3-.3-2 .2-2.7 1.2-1.3.9 1.2 1 1.2.5-.4-.4-1-.1-2.5.5-3.2.6-.8.8-1.4.3-1.4-.4 0 .5-1.4 2.1-3 1.6-1.7 2.5-3 2.1-3-.5 0-.3-.6.3-1.4.9-1 .9-1.6.1-2.1s-.6-1.4.7-2.8c1-1.2 1.4-1.9.9-1.5-.5.4-1.5.3-2.3-.3-.7-.6-1.4-.9-1.4-.5zm1.6 1.5c.3.5.2 1.2-.3 1.5-.5.3-.9-.1-.9-.9 0-1.7.3-1.9 1.2-.6zm-.4 5.5c-.6.7-.9 1.5-.6 1.8.3.3-.3 1.1-1.2 1.9-1.6 1.3-1.7 1.2-.5-.3.9-1.1 1-1.8.2-2.3-.8-.5-.8-1.1.1-2.1.6-.7 1.5-1.1 2.1-.8.5.4.5 1.1-.1 1.8zM84.1 526.9c-.9.6-1 1.1-.2 1.5.6.4.9 1.1.6 1.6-.3.5-.1 1.1.5 1.5.6.4.8 1 .6 1.4-.3.4.4 1.8 1.5 2.9 1.3 1.4 1.5 2.2.7 2.2-.9 0-.9.3.2 1 .8.5 1.1 1 .6 1-.5 0-.4.6.2 1.2.6.7 1 1.6.9 2-.3 1.3 3.3 4.9 4.3 4.3.6-.3 1-.2 1 .4 0 .5.8.8 1.8.7 2.5-.4 2.2-1-3.1-5.6-2.6-2.3-4.5-4.5-4.3-4.8.3-.3.1-1.1-.5-1.9-.6-.7-.8-1.3-.4-1.3s.2-.7-.5-1.5-.9-1.5-.5-1.5c.5 0 0-.9-.9-1.9-1-1.1-1.5-2.5-1.1-3 .7-1.3.4-1.4-1.4-.2zm13.4 20.5c.6.5 0 .3-1.2-.3-1.3-.6-2.3-.9-2.3-.5s-.9-.1-2-1.1-1.8-2-1.5-2.3c.3-.3-.1-1.2-.7-2.1-.7-.9.6 0 2.7 1.9 2.2 1.9 4.5 3.9 5 4.4z"/><path d="M91 543.4c0 .2.8 1 1.8 1.7 1.5 1.3 1.6 1.2.3-.4s-2.1-2.1-2.1-1.3zM152.7 534.4c-.4 1-.1 1.9.8 2.3 1.2.4 1.3.9.5 1.8s-.8 1.5 0 2c.6.3.7 1.2.3 1.8-.4.7 0 .6 1-.2.9-.7 1.4-1.8 1-2.5-.4-.6-.8-1.6-.9-2.3-.1-.6-.6-1.9-1.1-2.8-.9-1.6-1.1-1.6-1.6-.1zM282.5 534.1c-.4.5-1 .7-1.5.4-1-.6-2.5 1.3-1.7 2.2.3.3 1.2.1 1.9-.3.7-.5 1.8-.9 2.3-1 .6 0 1.6-.2 2.3-.2.6-.1 1.2-.6 1.2-1 0-1.1-3.9-1.2-4.5-.1zM130 535.8c0 .6-.6.9-1.4.6-.8-.3-1.7 0-2.1.5-.3.6-1.1.9-1.6.5-.5-.3-1.6 0-2.4.6-.8.7-1.5.9-1.5.5 0-.5-.8-.1-1.7.8-1 .8-2.2 1.7-2.8 1.9-.5.2-1 .9-1.2 1.6-.1.9.5.8 1.9-.5 1.1-1 2.2-1.7 2.4-1.6.4.3.6.3 2.2-.2 5.1-1.4 6.1-1.8 5.6-2.6-.3-.5-.1-.9.5-.9.5 0 1.2.6 1.4 1.2.4 1 .6 1 .6.1.1-.7.8-1 1.9-.7 1 .4 1.3.2.7-.3-.5-.4-1.3-1.2-1.7-1.7-.5-.5-.8-.4-.8.2zm-5 2.6c0 .2-.7.7-1.6 1-.8.3-1.2.2-.9-.4.6-1 2.5-1.4 2.5-.6zM217 541.5c-.7.8-1.6 1.3-2 1-1-.6-2.4 1.4-1.6 2.2.3.3 1.2 0 2-.6.8-.7 1.9-1 2.3-.8.5.3.9-.3.9-1.4 0-2.3 0-2.3-1.6-.4zM188.6 551.7c-.4.5-1.3.8-1.8.8-.6 0-1.3.6-1.5 1.2-.5 1.5 1.3 1.7 2.2.3.4-.6 1-.8 1.4-.6.4.3.8-.1.8-.9 0-1.7-.1-1.8-1.1-.8zM180.7 554.5c-1.5 1-1.5 1.4-.3 1.8.8.3 2 0 2.6-.8 1.5-1.8-.1-2.6-2.3-1zM330.6 554.4c.4 1 1.3 1.5 2.2 1.1 1.2-.5 1.3-.3.2 1s-1.1 1.6.1 1.3c.8-.2 1.3.2 1.2.9-.1.6.4 1.6 1.1 2.2 2.5 2.1 2.5-2.3 0-5.5-1.3-1.6-2.4-2.3-2.4-1.5 0 1.1-.3 1.1-1.5.1-1.3-1.1-1.4-1-.9.4zm5.3 3c.9 1.1.9 1.6-.1 2.2-.7.4-1 .4-.6-.1.4-.4.3-1.4-.3-2.2-.6-.7-.9-1.3-.6-1.3.2 0 1 .6 1.6 1.4zM346.2 567c.7 1.1 1.7 2 2.2 2 .5 0 .1-.9-.9-2s-2-2-2.2-2c-.2 0 .2.9.9 2zM405.7 566.7c-.4.3-.7 1.1-.7 1.7 0 .6.5.5 1.2-.2.6-.6.9-1.4.7-1.7-.3-.3-.9-.2-1.2.2zM361 573.3c0 .2.6 1 1.4 1.6 1.1.9 1.6.9 2.2-.1.4-.7.4-1-.1-.6-.4.4-1.4.3-2.2-.3-.7-.6-1.3-.9-1.3-.6zM650.2 583c-4.8 2.2-8.5 7.1-8.7 11.9-.8 12 11.8 19.4 22 13.1 9-5.5 8.9-18.5-.1-24.1-4.3-2.6-8.6-2.9-13.2-.9zM874.4 582.4c-10.4 4.7-13.2 18.1-5.3 26.2 12.7 13.1 34.2-1.6 26.3-18.1-1.6-3.4-5.9-7.7-8.5-8.4-3.7-1.1-9.7-1-12.5.3zM211.3 618c-4.4 1.8-5.6 7.7-2.3 11 2.8 2.8 7.4 2.6 9.8-.5 2-2.6 2.1-3.3.9-7.1-.6-1.6-4.8-4.7-6-4.3-.1 0-1.2.4-2.4.9z"/></svg>